<svg width="45" height="44" viewBox="0 0 45 44" fill="none" xmlns="http://www.w3.org/2000/svg">
<path d="M44.1134 28.0523C44.233 27.3689 44.0519 26.6049 43.6608 26.1421C43.538 25.9944 42.6002 25.4594 41.5681 24.9464C39.8416 24.0822 39.663 23.9646 39.2314 23.4283C38.5525 22.5772 38.5379 21.9807 39.1247 20.6606C40.2584 18.1316 40.1232 15.2405 38.7089 12.0564C37.7032 9.78538 36.2747 7.91308 34.3832 6.36588C33.9295 5.99471 32.796 5.42653 28.9481 3.63946C22.9069 0.83237 21.5118 0.330178 19.1226 0.115679C14.7231 -0.289351 10.7277 1.2767 8.11054 4.40664C7.62225 4.9969 7.09038 6.056 4.24242 12.2341C0.675998 19.9768 0.221371 21.1446 0.0764257 22.9318C-0.276551 27.3443 2.32682 31.9052 5.94128 34.2781C7.14204 35.0702 23.0805 42.3369 24.8023 42.8855C27.7967 43.8347 30.4801 43.8413 33.4149 42.9199C35.5405 42.2501 37.1462 41.2159 38.6429 39.5609C39.6807 38.4081 43.9802 28.8124 44.1134 28.0523ZM18.1484 10.4416C19.104 10.1457 19.3067 10.2098 23.5742 12.1406C27.4131 13.8776 27.5408 13.9446 27.9863 14.4503C28.6368 15.1779 28.7669 15.8451 28.3999 16.6562C28.071 17.3831 27.5067 17.7454 26.5765 17.8223C26.0738 17.8622 25.8308 17.7707 22.0636 16.0847C19.7393 15.0515 17.9062 14.1668 17.6628 13.9829C16.3739 12.9665 16.6557 10.9001 18.1484 10.4416ZM28.0037 33.3184L26.6177 32.9125L19.8093 29.915C13.8264 27.2818 12.189 26.4303 11.9295 26.1654C11.416 25.6473 11.1278 24.7242 11.2982 24.0915C11.4547 23.4894 12.1245 22.8706 12.7908 22.7019C13.6332 22.4932 13.9112 22.6005 21.5314 26.039C29.3702 29.5765 29.3265 29.5567 29.7963 30.4975C30.4632 31.8409 29.5469 33.2607 28.0037 33.3184Z" fill="#FF8A01"/>
</svg>
