<svg width="57" height="38" viewBox="0 0 57 38" fill="none" xmlns="http://www.w3.org/2000/svg">
<path d="M0.0625 6.8125C0.0625 3.19 3.2475 0.25 7.17188 0.25H49.8281C53.7525 0.25 56.9375 3.19 56.9375 6.8125V31.1875C56.9375 32.928 56.1885 34.5972 54.8552 35.8279C53.5219 37.0586 51.7136 37.75 49.8281 37.75H7.17188C5.28635 37.75 3.47805 37.0586 2.14479 35.8279C0.811521 34.5972 0.0625 32.928 0.0625 31.1875V6.8125ZM7.17188 4C6.36379 4 5.58881 4.29632 5.01741 4.82376C4.44601 5.35121 4.125 6.06658 4.125 6.8125V31.1875C4.125 32.74 5.49 34 7.17188 34H49.8281C50.6362 34 51.4112 33.7037 51.9826 33.1762C52.554 32.6488 52.875 31.9334 52.875 31.1875V6.8125C52.875 6.06658 52.554 5.35121 51.9826 4.82376C51.4112 4.29632 50.6362 4 49.8281 4H7.17188ZM34.5938 11.5C34.055 11.5 33.5384 11.6975 33.1574 12.0492C32.7765 12.4008 32.5625 12.8777 32.5625 13.375C32.5625 13.8723 32.7765 14.3492 33.1574 14.7008C33.5384 15.0525 34.055 15.25 34.5938 15.25H46.7812C47.32 15.25 47.8366 15.0525 48.2176 14.7008C48.5985 14.3492 48.8125 13.8723 48.8125 13.375C48.8125 12.8777 48.5985 12.4008 48.2176 12.0492C47.8366 11.6975 47.32 11.5 46.7812 11.5H34.5938ZM34.5938 22.75C34.055 22.75 33.5384 22.9475 33.1574 23.2992C32.7765 23.6508 32.5625 24.1277 32.5625 24.625C32.5625 25.1223 32.7765 25.5992 33.1574 25.9508C33.5384 26.3025 34.055 26.5 34.5938 26.5H46.7812C47.32 26.5 47.8366 26.3025 48.2176 25.9508C48.5985 25.5992 48.8125 25.1223 48.8125 24.625C48.8125 24.1277 48.5985 23.6508 48.2176 23.2992C47.8366 22.9475 47.32 22.75 46.7812 22.75H34.5938ZM17.3728 17.9275C18.0968 17.9275 18.8136 17.7959 19.4825 17.5401C20.1513 17.2844 20.759 16.9096 21.271 16.437C21.7829 15.9645 22.1889 15.4035 22.466 14.7861C22.743 14.1687 22.8856 13.507 22.8856 12.8387C22.8856 12.1705 22.743 11.5088 22.466 10.8914C22.1889 10.274 21.7829 9.71299 21.271 9.24046C20.759 8.76793 20.1513 8.39309 19.4825 8.13736C18.8136 7.88162 18.0968 7.75 17.3728 7.75C15.9107 7.75 14.5085 8.28613 13.4747 9.24046C12.4408 10.1948 11.86 11.4891 11.86 12.8387C11.86 14.1884 12.4408 15.4827 13.4747 16.437C14.5085 17.3914 15.9107 17.9275 17.3728 17.9275ZM11.6731 20.47C10.7487 20.47 9.8621 20.809 9.20842 21.4124C8.55474 22.0158 8.1875 22.8342 8.1875 23.6875C8.18763 25.0841 8.69347 26.4405 9.62462 27.5412C10.5558 28.642 11.8588 29.4238 13.3266 29.7625L13.5419 29.815C16.0606 30.3962 18.6891 30.3962 21.2038 29.815L21.4231 29.7663C22.8909 29.4276 24.1939 28.6457 25.1251 27.545C26.0562 26.4443 26.5621 25.0878 26.5622 23.6913C26.5627 23.2684 26.473 22.8496 26.298 22.4588C26.1231 22.068 25.8664 21.7129 25.5427 21.4137C25.219 21.1145 24.8346 20.8772 24.4114 20.7153C23.9882 20.5533 23.5346 20.47 23.0766 20.47H11.6731Z" fill="#FF8A01"/>
</svg>
