<svg width="50" height="43" viewBox="0 0 50 43" fill="none" xmlns="http://www.w3.org/2000/svg">
<path d="M50.6478 -2.10071C51.6194 -2.10071 52.4211 -1.80279 53.0526 -1.20696C53.6842 -0.611125 54 0.145125 54 1.06179V28.1493C54 29.0201 53.6842 29.7535 53.0526 30.3493C52.4211 30.9451 51.6194 31.266 50.6478 31.3118H33.7409V42.4493L20.2591 31.3118H3.35223C2.42915 31.3118 1.65182 30.991 1.02024 30.3493C0.388664 29.7076 0.048583 28.9743 0 28.1493V1.06179C0 0.145125 0.340081 -0.611125 1.02024 -1.20696C1.7004 -1.80279 2.47773 -2.10071 3.35223 -2.10071H50.6478Z" fill="#37E648"/>
</svg>
