<svg width="117" height="113" viewBox="0 0 117 113" fill="none" xmlns="http://www.w3.org/2000/svg">
<path d="M57.9374 10.3844C59.151 9.7055 60.63 9.7055 61.8435 10.3844L100.527 32.0275C101.791 32.7347 102.574 34.0699 102.574 35.5183V78.4817C102.574 79.9301 101.791 81.2653 100.527 81.9725L61.8435 103.616C60.63 104.295 59.151 104.295 57.9374 103.616L19.2536 81.9725C17.9896 81.2653 17.2066 79.9301 17.2066 78.4817V35.5183C17.2066 34.0699 17.9896 32.7347 19.2536 32.0275L57.9374 10.3844Z" stroke="#4C57BF" stroke-width="4"/>
<path d="M57.4491 14.5118C58.966 13.6631 60.8149 13.6631 62.3318 14.5118L96.5472 33.6548C98.1272 34.5388 99.1059 36.2079 99.1059 38.0183V75.9817C99.1059 77.7921 98.1272 79.4612 96.5472 80.3452L62.3318 99.4883C60.8149 100.337 58.966 100.337 57.4491 99.4883L23.2337 80.3452C21.6537 79.4612 20.675 77.7921 20.675 75.9817V38.0183C20.675 36.2079 21.6537 34.5388 23.2337 33.6548L57.4491 14.5118Z" stroke="#9EA7FB" stroke-width="2"/>
<path d="M76.1219 27.96C79.7494 26.567 83.5481 29.4829 82.9792 33.2237L75.1199 84.9009C74.5479 88.662 69.9948 90.4343 66.9361 88.0864L24.683 55.652C21.6243 53.3041 22.3623 48.6034 26.0095 47.2029L76.1219 27.96Z" fill="#4C57BF"/>
<path d="M92.1754 52.2732C94.6217 53.5064 94.7774 56.9392 92.4522 58.3756L47.0049 86.4505C44.7331 87.8539 41.7833 86.2916 41.6622 83.621L39.2959 31.4428C39.1747 28.7722 41.9718 26.9651 44.3618 28.17L92.1754 52.2732Z" stroke="#4C57BF" stroke-width="3"/>
<path d="M70.955 77.8354C70.5443 80.4413 67.4414 81.6146 65.3179 79.9669L33.7083 55.4394C31.5474 53.7627 32.0197 50.4339 34.5546 49.4754L72.279 35.2114C74.8138 34.2529 77.4878 36.3921 77.0698 39.0439L70.955 77.8354Z" stroke="white" stroke-width="3"/>
</svg>
