<svg width="54" height="54" viewBox="0 0 54 54" fill="none" xmlns="http://www.w3.org/2000/svg">
<path d="M27 0.75C23.5528 0.75 20.1394 1.42898 16.9546 2.74816C13.7698 4.06735 10.876 6.00091 8.43845 8.43845C6.00091 10.876 4.06735 13.7698 2.74816 16.9546C1.42898 20.1394 0.75 23.5528 0.75 27C0.75 30.4472 1.42898 33.8606 2.74816 37.0454C4.06735 40.2302 6.00091 43.124 8.43845 45.5616C10.876 47.9991 13.7698 49.9327 16.9546 51.2518C20.1394 52.571 23.5528 53.25 27 53.25C33.9619 53.25 40.6387 50.4844 45.5616 45.5616C50.4844 40.6387 53.25 33.9619 53.25 27C53.25 20.0381 50.4844 13.3613 45.5616 8.43845C40.6387 3.51562 33.9619 0.75 27 0.75ZM27 5.125C32.8016 5.125 38.3656 7.42968 42.468 11.532C46.5703 15.6344 48.875 21.1984 48.875 27C48.875 32.8016 46.5703 38.3656 42.468 42.468C38.3656 46.5703 32.8016 48.875 27 48.875C21.1984 48.875 15.6344 46.5703 11.532 42.468C7.42968 38.3656 5.125 32.8016 5.125 27C5.125 21.1984 7.42968 15.6344 11.532 11.532C15.6344 7.42968 21.1984 5.125 27 5.125ZM22.625 27H16.0625C15.5505 26.9998 15.0547 27.1793 14.6614 27.507C14.268 27.8348 14.0022 28.2901 13.91 28.7937L13.875 29.1875V35.7544C13.874 36.301 14.0777 36.8282 14.446 37.2322C14.8143 37.6361 15.3204 37.8876 15.8648 37.937C16.4092 37.9863 16.9524 37.8301 17.3874 37.499C17.8224 37.168 18.1176 36.686 18.215 36.1481L18.25 35.7544V34.7175C19.3157 35.927 20.6206 36.9024 22.0823 37.5821C23.5441 38.2618 25.1309 38.631 26.7425 38.6663C28.3541 38.7017 29.9556 38.4024 31.4457 37.7875C32.9359 37.1726 34.2823 36.2554 35.4 35.0938C35.5994 34.8869 35.756 34.6428 35.8611 34.3755C35.9661 34.1081 36.0174 33.8226 36.0122 33.5354C36.0069 33.2482 35.9451 32.9648 35.8303 32.7015C35.7155 32.4381 35.55 32.2 35.3431 32.0006C35.1363 31.8013 34.8922 31.6446 34.6248 31.5396C34.3575 31.4345 34.072 31.3832 33.7848 31.3885C33.4976 31.3937 33.2142 31.4555 32.9509 31.5703C32.6875 31.6851 32.4494 31.8507 32.25 32.0575C31.5172 32.8183 30.6279 33.4108 29.6436 33.794C28.6593 34.1773 27.6035 34.3422 26.5492 34.2773C25.4949 34.2124 24.4673 33.9192 23.5375 33.4181C22.6076 32.917 21.7977 32.2199 21.1637 31.375H22.625C23.1716 31.376 23.6988 31.1723 24.1028 30.804C24.5068 30.4357 24.7582 29.9296 24.8076 29.3852C24.857 28.8408 24.7007 28.2976 24.3697 27.8626C24.0386 27.4276 23.5566 27.1324 23.0188 27.035L22.625 27ZM27 15.3363C25.4242 15.3344 23.8644 15.6525 22.4152 16.2715C20.966 16.8904 19.6576 17.7972 18.5694 18.9369C18.1685 19.3563 17.9506 19.9179 17.9638 20.4979C17.9703 20.7852 18.0333 21.0683 18.1492 21.3312C18.2651 21.594 18.4317 21.8315 18.6394 22.03C18.8471 22.2285 19.0918 22.3841 19.3597 22.4881C19.6275 22.592 19.9132 22.6421 20.2004 22.6356C20.7805 22.6225 21.3316 22.3795 21.7325 21.96C22.4642 21.1952 23.3535 20.5988 24.3389 20.2123C25.3242 19.8258 26.3818 19.6583 27.4383 19.7216C28.4949 19.7849 29.525 20.0773 30.4571 20.5787C31.3892 21.0801 32.2011 21.7783 32.8363 22.625H31.3925C30.8459 22.624 30.3187 22.8277 29.9147 23.196C29.5107 23.5643 29.2593 24.0704 29.2099 24.6148C29.1605 25.1592 29.3168 25.7024 29.6478 26.1374C29.9789 26.5724 30.4609 26.8676 30.9987 26.965L31.3925 27H37.9375C38.4495 27.0002 38.9453 26.8207 39.3386 26.493C39.732 26.1652 39.9978 25.7099 40.09 25.2063L40.125 24.8125V18.2631C40.126 17.7165 39.9223 17.1893 39.554 16.7853C39.1857 16.3814 38.6796 16.1299 38.1352 16.0805C37.5908 16.0312 37.0476 16.1874 36.6126 16.5185C36.1776 16.8495 35.8824 17.3315 35.785 17.8694L35.75 18.2631V19.2869C34.6555 18.045 33.3092 17.0503 31.8005 16.3692C30.2918 15.688 28.6553 15.3359 27 15.3363Z" fill="#15ABBF"/>
</svg>
