<svg width="50" height="45" viewBox="0 0 50 45" fill="none" xmlns="http://www.w3.org/2000/svg">
<path d="M46.875 18.2373L42.8711 17.4463C42.5781 16.5967 42.1875 15.7324 41.6992 14.8535L43.8477 11.6016C44.1406 11.1914 44.3604 10.7593 44.5068 10.3052C44.6533 9.85107 44.6777 9.375 44.5801 8.87695C44.4824 8.37891 44.2383 7.9541 43.8477 7.60254L41.6504 5.625C41.3574 5.36133 41.0075 5.16357 40.6006 5.03174C40.1937 4.8999 39.7868 4.84131 39.3799 4.85596C38.973 4.87061 38.5742 4.93652 38.1836 5.05371C37.793 5.1709 37.4349 5.31738 37.1094 5.49316L33.5938 7.51465L33.2031 7.33887L32.8125 7.16309L32.4219 7.00928L32.0068 6.85547L31.5918 6.70166L31.1768 6.56982L30.7617 6.45996L29.8828 2.76855C29.7201 2.06543 29.3294 1.42822 28.7109 0.856934C28.0924 0.285645 27.3763 0 26.5625 0H23.4375C22.6237 0 21.9482 0.27832 21.4111 0.834961C20.874 1.3916 20.5078 2.05078 20.3125 2.8125L19.2871 6.41602C18.7663 6.5625 18.2536 6.73096 17.749 6.92139C17.2445 7.11182 16.748 7.32422 16.2598 7.55859L12.6465 5.49316C12.2233 5.22949 11.7432 5.04639 11.2061 4.94385C10.6689 4.84131 10.1237 4.84131 9.57031 4.94385C9.01693 5.04639 8.54492 5.27344 8.1543 5.625L5.9082 7.60254C5.35482 8.24707 5.10254 8.90625 5.15137 9.58008C5.2002 10.2539 5.45247 10.9277 5.9082 11.6016L8.20312 15.0293C7.7474 15.8789 7.38932 16.6846 7.12891 17.4463L3.125 18.2373C2.3112 18.3838 1.58691 18.728 0.952148 19.27C0.317383 19.812 0 20.4639 0 21.2256V24.0381C0 24.7412 0.309245 25.3418 0.927734 25.8398C1.54622 26.3379 2.27865 26.6748 3.125 26.8506L7.17773 27.7295C7.43815 28.4619 7.77995 29.209 8.20312 29.9707L5.9082 33.3984C5.45247 34.0723 5.2002 34.7461 5.15137 35.4199C5.10254 36.0938 5.35482 36.7529 5.9082 37.3975L8.1543 39.375C8.80534 39.9023 9.55404 40.1587 10.4004 40.144C11.2467 40.1294 11.9954 39.917 12.6465 39.5068L16.2598 37.4414L16.8457 37.7051L17.4561 37.9468L18.0908 38.1665L18.7256 38.3862L19.3359 38.584L20.3125 42.1875C20.5078 42.9492 20.8822 43.6084 21.4355 44.165C21.9889 44.7217 22.6562 45 23.4375 45H26.5625C27.1159 45 27.6367 44.8608 28.125 44.5825C28.6133 44.3042 29.0039 43.9526 29.2969 43.5278C29.5898 43.103 29.7852 42.6562 29.8828 42.1875L30.7617 38.54C31.7383 38.2764 32.6823 37.9248 33.5938 37.4854L37.1094 39.5068C37.793 39.917 38.5579 40.1294 39.4043 40.144C40.2506 40.1587 40.9993 39.9023 41.6504 39.375L43.8477 37.3975C44.401 36.7529 44.6533 36.0938 44.6045 35.4199C44.5557 34.7461 44.3034 34.0723 43.8477 33.3984L41.6992 30.1465C42.1549 29.3555 42.5293 28.5498 42.8223 27.7295L46.875 26.8506C47.7214 26.6748 48.4538 26.3379 49.0723 25.8398C49.6908 25.3418 50 24.7412 50 24.0381V21.2256C50 20.083 49.3327 19.2041 47.998 18.5889C47.64 18.4131 47.2656 18.2959 46.875 18.2373ZM46.875 23.8184C46.8424 23.8477 46.7936 23.877 46.7285 23.9062C46.6634 23.9355 46.582 23.9648 46.4844 23.9941L46.1914 24.082L40.3809 25.4004L39.8438 26.8506C39.7135 27.2021 39.5752 27.5464 39.4287 27.8833C39.2822 28.2202 39.1113 28.5498 38.916 28.8721L38.1348 30.2783L41.2109 34.8486C41.3737 35.1123 41.4714 35.3467 41.5039 35.5518L39.4531 37.3975C39.3229 37.3682 39.209 37.3315 39.1113 37.2876C39.0137 37.2437 38.9486 37.207 38.916 37.1777L33.7891 34.2334L32.1777 34.9805C31.9173 35.0977 31.6569 35.2075 31.3965 35.3101L30.6152 35.6177L29.834 35.8594L28.125 36.3867L26.8555 41.6162C26.8229 41.7334 26.7741 41.8433 26.709 41.9458C26.6439 42.0483 26.5788 42.1289 26.5137 42.1875H23.6816C23.5514 42.0117 23.4538 41.8066 23.3887 41.5723L21.9238 36.3867L20.2637 35.9033C20.166 35.874 20.0765 35.8447 19.9951 35.8154C19.9137 35.7861 19.8242 35.7568 19.7266 35.7275L19.4336 35.6396L19.1406 35.5298L18.8477 35.4199L18.5547 35.3101L18.2861 35.2002L18.0176 35.0903L17.7246 34.9365L16.1133 34.1895L10.9863 37.1338C10.7585 37.2803 10.5469 37.3535 10.3516 37.3535L8.30078 35.5518C8.33333 35.3467 8.43099 35.127 8.59375 34.8926L11.7676 30.1025L11.0352 28.7402C10.6771 28.0957 10.3841 27.4805 10.1562 26.8945L9.61914 25.4004L3.90625 24.082C3.58073 24.0234 3.32031 23.9355 3.125 23.8184V21.2256C3.15755 21.2256 3.19824 21.2109 3.24707 21.1816C3.2959 21.1523 3.361 21.1157 3.44238 21.0718C3.52376 21.0278 3.59701 21.0059 3.66211 21.0059L9.57031 19.8193L10.1074 18.2812C10.3027 17.666 10.5957 16.9922 10.9863 16.2598L11.7676 14.8975L8.59375 10.1514C8.52865 10.0342 8.46354 9.90967 8.39844 9.77783C8.33333 9.646 8.30078 9.53613 8.30078 9.44824L10.3516 7.60254L10.8887 7.82227L16.1133 10.8105L17.7246 10.0635C18.5384 9.68262 19.3848 9.36035 20.2637 9.09668L21.9238 8.61328L23.3398 3.51562C23.4049 3.22266 23.5189 2.98828 23.6816 2.8125H26.5625L26.6113 2.94434C26.6439 2.97363 26.6683 3.00293 26.6846 3.03223C26.7008 3.06152 26.7171 3.10547 26.7334 3.16406C26.7497 3.22266 26.7741 3.2666 26.8066 3.2959L28.0762 8.61328L29.7852 9.14062C30.599 9.375 31.3965 9.66797 32.1777 10.0195L33.7891 10.7666L38.8184 7.86621C39.0462 7.74902 39.2578 7.69043 39.4531 7.69043L41.5039 9.49219C41.4714 9.55078 41.4388 9.63867 41.4062 9.75586C41.3737 9.87305 41.3086 9.99023 41.2109 10.1074L38.1348 14.7217L38.916 16.1279C39.1439 16.5088 39.3392 16.875 39.502 17.2266C39.6647 17.5781 39.7949 17.9297 39.8926 18.2812L40.4297 19.8193L46.2402 21.0059C46.5983 21.0645 46.8262 21.167 46.9238 21.3135L46.875 23.8184ZM25.0244 14.0625C22.4365 14.0625 20.223 14.8828 18.3838 16.5234C16.5446 18.1641 15.625 20.1562 15.625 22.5C15.625 24.8438 16.5446 26.8359 18.3838 28.4766C20.223 30.1172 22.4284 30.9375 25 30.9375C26.3021 30.9375 27.5309 30.7178 28.6865 30.2783C29.8421 29.8389 28.4505 27.3461 29.2969 26.5844C30.1432 25.8226 33.2031 26.814 33.6914 25.7739C34.1797 24.7339 34.4238 23.6426 34.4238 22.5C34.4238 20.1562 33.5042 18.1641 31.665 16.5234C29.8258 14.8828 27.6123 14.0625 25.0244 14.0625ZM25 28.125C23.2747 28.125 21.8018 27.5757 20.5811 26.4771C19.3604 25.3784 18.75 24.0527 18.75 22.5C18.75 20.9473 19.3604 19.6216 20.5811 18.5229C21.8018 17.4243 23.2747 16.875 25 16.875C26.7253 16.875 28.1982 17.4243 29.4189 18.5229C30.6396 19.6216 31.25 20.9473 31.25 22.5C31.25 24.0527 30.6396 25.3784 29.4189 26.4771C28.1982 27.5757 26.7253 28.125 25 28.125Z" fill="#8F92B0"/>
</svg>
