<svg width="39" height="36" viewBox="0 0 39 36" fill="none" xmlns="http://www.w3.org/2000/svg">
<path d="M13.6742 4.90749C16.6956 -0.518404 23.4287 -0.362605 29.0148 2.74801C32.2983 4.57647 34.475 7.07381 35.3962 9.65896C36.2131 11.8189 36.3905 14.7505 34.707 17.7738L28.6805 14.4179C29.0261 13.7972 29.2382 13.1809 29.3278 12.5488C29.706 10.5036 28.3523 8.64812 26.25 7.47746C22.526 5.40372 20.4277 6.91078 19.6696 8.27225C19.1344 9.2333 19.189 10.3129 19.8021 11.5199C20.2842 12.4441 20.8087 13.3394 21.8448 14.4935L12.6147 9.35372C12.5734 8.43885 12.5258 6.96973 13.6742 4.90749ZM36.5196 30.5342L38.7494 26.5299L2.71028 6.46142L0.48045 10.4658L19.7414 21.1912C21.5422 23.3744 22.8294 24.8781 21.4692 27.3208C20.3543 29.3229 17.9856 29.7613 15.0424 28.1224C11.959 26.4054 9.77807 23.7745 11.9744 19.8302L6.02799 16.5189C5.41479 17.6201 4.92831 18.8706 4.74695 19.9499C3.81555 25.438 7.65488 30.2252 12.4201 32.8787C16.965 35.4095 24.0239 37.0058 27.547 30.6789C27.8815 30.0783 28.8203 28.3453 28.7489 26.2596L36.4973 30.5743L36.5196 30.5342Z" fill="#2739D9"/>
</svg>
