<svg width="34" height="40" viewBox="0 0 34 40" fill="none" xmlns="http://www.w3.org/2000/svg">
<path d="M19.8713 1.92H20.835C27.0713 1.92 29.975 5.18125 31.1863 13.88L33.12 13.795L32.86 0H1.14001L0.828755 13.795L2.68376 13.88C3.00876 10.6188 3.39376 8.86 4.23376 7.11C5.71251 3.84875 8.79751 1.92 12.5988 1.92H13.9475V31.94C13.9475 35.1162 13.7588 36.12 12.9838 36.875C12.3388 37.4613 11.0575 37.7087 9.5725 37.7087H8.09376V39.7137H25.7238V37.7087H24.24C22.7688 37.7087 21.4738 37.4625 20.835 36.875C20.0663 36.12 19.8713 35.1162 19.8713 31.94V1.92ZM0.333755 18.125H8.46501V26.2438H0.333755V18.125ZM25.2238 18.125H33.3538V26.2438H25.2238V18.125Z" fill="#07580F"/>
</svg>
