<svg width="55" height="55" viewBox="0 0 55 55" fill="none" xmlns="http://www.w3.org/2000/svg">
<path d="M7.10878 47.8912C8.70836 49.4931 10.9954 50.3387 13.7248 50.3387C17.7169 50.3387 22.5592 48.5558 27.5023 45.4644C32.4432 48.5581 37.2877 50.3387 41.2798 50.3387C44.0069 50.3387 46.294 49.4931 47.8959 47.8912C50.804 44.9831 51.1294 40.0698 48.8148 34.0519C47.9944 31.916 46.8577 29.7092 45.4759 27.5C46.7954 25.4276 47.9135 23.2337 48.8148 20.9481C51.1294 14.9302 50.8017 10.0146 47.8959 7.10874C46.2963 5.50686 44.0092 4.66124 41.2798 4.66124C37.2877 4.66124 32.4454 6.44416 27.5023 9.53561C22.5615 6.44186 17.7169 4.66124 13.7248 4.66124C10.9977 4.66124 8.71065 5.50686 7.10878 7.10874C4.20065 10.0169 3.87295 14.9302 6.18753 20.9481C7.01024 23.0839 8.14461 25.2908 9.52649 27.5C8.2069 29.5724 7.08881 31.7663 6.18753 34.0519C3.87295 40.0698 4.20065 44.9831 7.10878 47.8912V47.8912ZM44.534 35.6973C46.1129 39.7994 46.1565 43.1475 44.6532 44.6508C43.9198 45.3842 42.7854 45.7554 41.2775 45.7554C38.6031 45.7554 35.2138 44.6027 31.6342 42.5929C35.7394 39.4196 39.4228 35.7354 42.5952 31.6296C43.3652 33.0069 44.0229 34.3704 44.534 35.6973V35.6973ZM27.5 39.9139C25.1076 38.2034 22.8589 36.3004 20.7763 34.2237C18.6894 32.1397 16.7735 29.8912 15.0471 27.5C18.4975 22.7141 22.7034 18.5214 27.5 15.086C29.8925 16.7965 32.1412 18.6996 34.2238 20.7762C36.3107 22.8602 38.2266 25.1087 39.9529 27.5C36.5026 32.2858 32.2967 36.4786 27.5 39.9139V39.9139ZM41.2775 9.24457C42.7831 9.24457 43.9175 9.61582 44.6532 10.3492C46.1565 11.8525 46.1152 15.2006 44.534 19.3027C44.0229 20.6296 43.3652 21.9931 42.5952 23.3704C39.4259 19.2618 35.7421 15.5773 31.6342 12.4071C35.2138 10.3996 38.6031 9.24457 41.2775 9.24457ZM10.4661 19.3027C8.88711 15.2006 8.84357 11.8525 10.3469 10.3492C11.0802 9.61582 12.2146 9.24457 13.7225 9.24457C16.3969 9.24457 19.7863 10.3973 23.3659 12.4071C19.2579 15.5773 15.5741 19.2618 12.4048 23.3704C11.6636 22.0618 11.0157 20.7026 10.4661 19.3027V19.3027ZM10.4661 35.6973C10.9771 34.3704 11.6348 33.0069 12.4048 31.6296C15.5741 35.7381 19.2579 39.4227 23.3659 42.5929C19.784 44.6027 16.3969 45.7554 13.7225 45.7554C12.2169 45.7554 11.0825 45.3842 10.3469 44.6508C8.84357 43.1475 8.88711 39.7994 10.4661 35.6973V35.6973Z" fill="#1B9FB1"/>
<path d="M27.5 33.3987C30.7578 33.3987 33.3988 30.7578 33.3988 27.5C33.3988 24.2422 30.7578 21.6012 27.5 21.6012C24.2422 21.6012 21.6013 24.2422 21.6013 27.5C21.6013 30.7578 24.2422 33.3987 27.5 33.3987Z" fill="#1B9FB1"/>
</svg>
