<?xml version="1.0" standalone="no"?>
<!DOCTYPE svg PUBLIC "-//W3C//DTD SVG 1.1//EN" "http://www.w3.org/Graphics/SVG/1.1/DTD/svg11.dtd">
<svg xmlns="http://www.w3.org/2000/svg">
<defs >
<font id="Farro" horiz-adv-x="564" ><font-face
    font-family="Farro Medium"
    units-per-em="1000"
    panose-1="0 0 6 0 0 0 0 0 0 0"
    ascent="800"
    descent="-200"
    alphabetic="0" />
<glyph unicode=" " glyph-name="space" horiz-adv-x="213" />
<glyph unicode="!" glyph-name="exclam" horiz-adv-x="344" d="M106 600L93 750H250L237 600L221 210H123L106 600ZM132 -7T105 15T78 72Q78 107 105 130T172 153Q211 153 238 130T266 72Q266 37 239 15T172 -7Q132 -7 105 15Z" />
<glyph unicode="&quot;" glyph-name="quotedbl" horiz-adv-x="412" d="M77 640T65 703T52 792Q52 819 70 833T116 848Q143 848 160 833T177 792Q177 766 165 703T138 596H91Q77 640 65 703ZM260 640T248 703T235 792Q235 819 253 833T300 848Q326 848 343 833T360
792Q360 766 348 703T321 596H274Q260 640 248 703Z" />
<glyph unicode="#" glyph-name="numbersign" horiz-adv-x="692" d="M531 489L509 253H636V144H498L496 -6H366L391 144H252L250 -6H120L145 144H27V253H156L178 489H56V598H189L191 743H322L296 598H435L436 743H568L542 598H665V489H531ZM424 489H285L263 253H402L424
489Z" />
<glyph unicode="$" glyph-name="dollar" horiz-adv-x="627" d="M593 110T534 57T366 -8L371 -93H255L260 -8Q200 -1 150 25T54 96L35 225L49 229Q101 179 156 148T263 108V314Q146 337 94 389T41 533Q41 634 98 690T258 757L255 816H371L368 757Q482 744 567 669L548
552L533 548Q509 581 462 607T363 642V423Q485 400 539 351T593 204Q593 110 534 57ZM161 512T185 487T263 445V641Q210 634 186 612T161 549Q161 512 185 487ZM417 115T444 136T471 196Q471 234 448 255T363 293V107Q417 115 444 136Z" />
<glyph unicode="%" glyph-name="percent" horiz-adv-x="838" d="M37 370T37 568Q37 766 203 766Q369 766 369 568Q369 471 329 421T203 370Q37 370 37 568ZM203 150L512 605L592 750H749L634 605L325 150L237 0H89L203 150ZM234 466T250 489T266 564Q266 615 251
638T203 662Q171 662 155 639T138 564Q138 466 203 466Q234 466 250 489ZM469 -8T469 190Q469 388 635 388Q801 388 801 190Q801 93 761 43T635 -8Q469 -8 469 190ZM667 88T683 111T699 186Q699 237 683 260T635 284Q603 284 587 261T571 186Q571 88 635 88Q667
88 683 111Z" />
<glyph unicode="&amp;" glyph-name="ampersand" horiz-adv-x="717" d="M24 254T60 304T180 393Q152 438 137 481T121 560Q121 656 170 708T317 760Q513 760 513 565Q513 421 350 348L390 301Q448 234 459 219L475 239Q515 288 533 319L559 398H700Q636 258 541
155Q595 110 638 110Q679 110 715 122L726 116L691 12Q668 2 653 -1T610 -4Q534 -4 449 81Q397 33 347 11T242 -11Q133 -11 79 36T24 176Q24 254 60 304ZM237 517T288 430Q349 466 373 497T398 567Q398 647 320 647Q278 647 258 627T237 564Q237 517 288 430ZM141
148T167 126T239 103Q268 103 297 113T363 149Q279 239 231 311Q180 281 161 254T141 187Q141 148 167 126Z" />
<glyph unicode="&apos;" glyph-name="quotesingle" horiz-adv-x="229" d="M77 640T65 703T52 792Q52 819 70 833T116 848Q143 848 160 833T177 792Q177 766 165 703T138 596H91Q77 640 65 703Z" />
<glyph unicode="(" glyph-name="parenleft" horiz-adv-x="348" d="M200 -159Q137 -67 104 48T71 309Q71 456 103 570T200 777H305L316 763Q250 662 225 558T199 309Q199 167 226 59T316 -145L305 -159H200Z" />
<glyph unicode=")" glyph-name="parenright" horiz-adv-x="348" d="M31 -145Q94 -51 121 57T148 309Q148 454 123 558T31 763L42 777H147Q211 685 243 571T276 309Q276 162 244 48T147 -159H42L31 -145Z" />
<glyph unicode="*" glyph-name="asterisk" horiz-adv-x="350" d="M95 465T80 478T65 508Q65 533 133 586Q77 587 52 597T26 630Q26 649 36 662T64 676Q76 676 99 665T148 635Q134 684 134 716Q134 733 145 743T175 753Q193 753 204 743T216 716Q216 683 201 635Q228
653 251 664T286 676Q303 676 313 662T324 630Q324 607 298 597T216 585Q285 533 285 508Q285 491 270 478T238 465Q220 465 206 486T175 554Q158 507 144 486T111 465Q95 465 80 478Z" />
<glyph unicode="+" glyph-name="plus" horiz-adv-x="546" d="M520 250H333V46H212V250H26V366H212V570H333V366H520V250Z" />
<glyph unicode="," glyph-name="comma" horiz-adv-x="286" d="M186 153T212 128T238 61Q238 9 205 -44T124 -118L92 -86L94 -82Q111 -71 123 -50T137 -9Q99 -8 74 14T48 71Q48 107 74 130T142 153Q186 153 212 128Z" />
<glyph unicode="-" glyph-name="hyphen" horiz-adv-x="486" d="M43 366H444V250H43V366Z" />
<glyph unicode="." glyph-name="period" horiz-adv-x="288" d="M104 -7T77 15T50 72Q50 107 77 130T144 153Q183 153 210 130T238 72Q238 37 211 15T144 -7Q104 -7 77 15Z" />
<glyph unicode="/" glyph-name="slash" horiz-adv-x="405" d="M87 70L218 655L238 800H383L343 655L212 70L191 -80H44L87 70Z" />
<glyph unicode="0" glyph-name="zero" horiz-adv-x="606" d="M214 -16T159 24T78 152T51 381Q51 518 77 602T159 726T303 766Q391 766 446 727T527 603T554 381Q554 239 528 152T447 25T303 -16Q214 -16 159 24ZM351 103T378 127T417 209T429 375Q429 482 417
540T378 623T303 647Q255 647 228 623T188 541T176 375Q176 268 188 210T227 127T303 103Q351 103 378 127Z" />
<glyph unicode="1" glyph-name="one" horiz-adv-x="410" d="M48 577L233 750H324V150L333 0H195L203 150V567L48 446L33 453L48 577Z" />
<glyph unicode="2" glyph-name="two" horiz-adv-x="545" d="M519 158L491 49Q484 23 453 12T359 0H47V72L217 300Q295 405 323 459T352 551Q352 596 325 617T243 639Q184 639 138 617T65 554L54 556L70 687Q106 721 156 739T260 757Q362 757 420 708T479 567Q479
525 469 492T428 409T331 265L224 115H394Q425 115 455 127T510 162L519 158Z" />
<glyph unicode="3" glyph-name="three" horiz-adv-x="546" d="M408 415T451 354T495 204Q495 140 465 90T379 12T248 -16Q191 -16 140 0T55 47L39 177L50 179Q78 142 125 122T234 102Q294 102 330 134T367 218Q367 281 320 314T182 347H158V395L306 635H55L48
646L79 750H468V684L326 437Q408 415 451 354Z" />
<glyph unicode="4" glyph-name="four" horiz-adv-x="581" d="M465 170V150L474 0H336L344 150V170H22V246L368 750H465V286H543V170H465ZM344 286V550L180 286H344Z" />
<glyph unicode="5" glyph-name="five" horiz-adv-x="558" d="M505 465T505 219Q505 149 475 96T391 13T265 -16Q206 -16 154 0T68 47L53 176L64 178Q89 141 137 122T248 102Q305 102 341 134T377 219Q377 284 341 316T235 349H76V396L109 750H481L465 646L449
635H222L209 465H235Q505 465 505 219Z" />
<glyph unicode="6" glyph-name="six" horiz-adv-x="575" d="M533 477T533 230Q533 155 504 99T422 14T299 -16Q208 -16 154 23T75 145T50 358Q50 548 118 653T320 759Q375 759 414 749T489 713L468 603L457 605Q427 626 397 634T320 642Q247 642 213 591T175 424Q205
451 242 464T327 477Q533 477 533 230ZM408 104T408 230Q408 298 380 328T290 358Q256 358 224 345T175 312V281Q175 196 205 150T292 104Q408 104 408 230Z" />
<glyph unicode="7" glyph-name="seven" horiz-adv-x="518" d="M490 683L272 0H135L343 635H27L18 639L46 750H490V683Z" />
<glyph unicode="8" glyph-name="eight" horiz-adv-x="583" d="M481 364T510 315T540 200Q540 99 474 42T293 -16Q172 -16 108 37T43 190Q43 249 70 297T151 376Q106 405 80 448T53 541Q53 612 84 662T171 739T297 766Q363 766 414 742T493 672T522 565Q522 512
499 471T426 395Q481 364 510 315ZM235 647T207 624T178 555Q178 516 216 486T331 431Q402 483 402 555Q402 599 373 623T291 647Q235 647 207 624ZM415 106T415 208Q415 251 373 282T247 337Q205 315 183 282T161 209Q161 158 193 132T286 106Q415 106 415 208Z"
/>
<glyph unicode="9" glyph-name="nine" horiz-adv-x="575" d="M367 766T421 727T500 605T525 392Q525 202 457 97T255 -9Q200 -9 161 1T86 37L107 147L118 145Q148 124 178 116T255 108Q328 108 362 159T400 326Q370 299 333 286T248 273Q42 273 42 520Q42 595
71 651T153 736T276 766Q367 766 421 727ZM319 392T351 405T400 438V469Q400 554 370 600T283 646Q167 646 167 520Q167 452 195 422T285 392Q319 392 351 405Z" />
<glyph unicode=":" glyph-name="colon" horiz-adv-x="334" d="M127 428T100 450T73 507Q73 542 100 565T167 588Q206 588 233 565T261 507Q261 472 234 450T167 428Q127 428 100 450ZM127 -7T100 15T73 72Q73 107 100 130T167 153Q206 153 233 130T261 72Q261
37 234 15T167 -7Q127 -7 100 15Z" />
<glyph unicode=";" glyph-name="semicolon" horiz-adv-x="337" d="M213 153T239 128T265 61Q265 9 232 -44T151 -118L119 -86L121 -82Q138 -71 150 -50T164 -9Q126 -8 101 14T75 71Q75 107 101 130T169 153Q213 153 239 128ZM129 383T102 405T75 462Q75 497 102
520T169 543Q208 543 235 520T263 462Q263 427 236 405T169 383Q129 383 102 405Z" />
<glyph unicode="&lt;" glyph-name="less" horiz-adv-x="558" d="M497 129L505 -16L35 220V333L505 569L497 421L162 277L497 129Z" />
<glyph unicode="=" glyph-name="equal" horiz-adv-x="606" d="M56 479H550V363H56V479ZM56 248H550V132H56V248Z" />
<glyph unicode="&gt;" glyph-name="greater" horiz-adv-x="558" d="M522 333V220L52 -16L61 129L396 277L61 421L52 569L522 333Z" />
<glyph unicode="?" glyph-name="question" horiz-adv-x="444" d="M147 294T160 342T216 459Q237 494 246 517T255 558Q255 592 231 610T167 629Q136 629 107 621T57 597L47 602L68 705Q101 731 142 743T228 756Q274 756 312 737T372 684T395 607Q395 565 382 524T334
427Q296 367 282 321T268 210H147Q147 294 160 342ZM170 -7T143 15T116 72Q116 107 143 130T210 153Q249 153 276 130T304 72Q304 37 277 15T210 -7Q170 -7 143 15Z" />
<glyph unicode="@" glyph-name="at" horiz-adv-x="764" d="M529 379V251Q529 218 540 203T574 187Q605 187 619 221T634 331Q634 449 569 509T386 570Q253 570 188 493T123 279Q123 145 190 77T389 9Q474 9 535 25T627 72L636 68L613 -24Q592 -46 521 -65T387
-84Q210 -84 118 9T26 279Q26 461 118 561T387 662Q493 662 570 622T689 507T731 331Q731 213 691 158T570 103Q486 103 453 148Q434 127 407 115T347 103Q286 103 249 151T212 286Q212 376 248 425T350 475Q397 475 434 454V468H534L529 379ZM394 191T407 199T434
227V380Q415 386 383 386Q353 386 337 378T315 348T308 286Q308 232 323 212T374 191Q394 191 407 199Z" />
<glyph unicode="A" glyph-name="A" horiz-adv-x="652" d="M633 0H481L453 150L448 168L188 166L183 150L154 0H19L69 150L199 600L233 750H415L448 600L583 150L633 0ZM414 287L316 624L221 285L414 287Z" />
<glyph unicode="B" glyph-name="B" horiz-adv-x="648" d="M545 370T576 327T608 225Q608 157 575 106T481 28T342 0H71L80 150V605L71 750H343Q410 750 460 723T538 647T566 534Q566 488 546 452T488 393Q545 370 576 327ZM204 631V446H311Q377 446 406 467T436
534Q436 583 407 607T313 631H204ZM407 119T442 147T478 225Q478 327 344 327H204V119H342Q407 119 442 147Z" />
<glyph unicode="C" glyph-name="C" horiz-adv-x="584" d="M248 -16T180 24T80 151T49 378Q49 575 123 670T362 766Q425 766 465 754T545 710L525 601L505 592Q480 620 447 632T362 644Q296 644 257 617T199 532T180 378Q180 274 197 216T253 132T362 106Q424 106
464 119T534 162L553 154L527 52Q458 -16 362 -16Q248 -16 180 24Z" />
<glyph unicode="D" glyph-name="D" horiz-adv-x="653" d="M467 750T535 659T604 378Q604 187 535 94T319 0H71L80 150V605L71 750H319Q467 750 535 659ZM376 119T409 145T458 227T473 378Q473 476 458 530T410 608T319 631H205V119H319Q376 119 409 145Z" />
<glyph unicode="E" glyph-name="E" horiz-adv-x="561" d="M524 119L505 0H71L80 150V605L71 750H515L496 631H204V446H468L449 327H204V119H524Z" />
<glyph unicode="F" glyph-name="F" horiz-adv-x="538" d="M204 631V446H466L447 327H204V150L212 0H71L80 150V605L71 750H515L496 631H204Z" />
<glyph unicode="G" glyph-name="G" horiz-adv-x="657" d="M49 578T121 672T358 766Q411 766 466 748T569 694L549 582L529 573Q503 605 456 624T358 644Q293 644 254 617T197 532T179 378Q179 277 194 218T244 133T336 106Q411 106 446 153T482 302H318V421H601V0H533L510
82Q484 38 434 11T326 -16Q184 -16 117 79T49 378Q49 578 121 672Z" />
<glyph unicode="H" glyph-name="H" horiz-adv-x="662" d="M582 151L591 1H450L458 151V327H204V150L212 0H71L80 150V605L71 750H212L204 605V446H458V606L450 751H591L582 606V151Z" />
<glyph unicode="I" glyph-name="I" horiz-adv-x="283" d="M80 150V605L71 750H212L204 605V150L212 0H71L80 150Z" />
<glyph unicode="J" glyph-name="J" horiz-adv-x="295" d="M224 750L216 605V0Q158 -146 66 -216L-43 -116L-35 -107Q-16 -107 22 -65T92 36V605L83 750H224Z" />
<glyph unicode="K" glyph-name="K" horiz-adv-x="635" d="M80 150V605L71 750H212L204 605V408L336 605L417 750H603L481 605L346 403L524 150L643 0H455L370 150L265 306L204 264V150L212 0H71L80 150Z" />
<glyph unicode="L" glyph-name="L" horiz-adv-x="535" d="M524 119L505 0H71L80 150V605L71 750H212L204 605V150L206 119H524Z" />
<glyph unicode="M" glyph-name="M" horiz-adv-x="877" d="M671 150V659L512 0H347L189 662V150L197 0H71L80 150V605L74 750H297L439 120L585 750H803L797 605V150L806 0H663L671 150Z" />
<glyph unicode="N" glyph-name="N" horiz-adv-x="675" d="M596 148L604 0H402L189 626V150L197 0H71L80 150V605L71 750H274L487 124V603L478 750H604L596 603V148Z" />
<glyph unicode="O" glyph-name="O" horiz-adv-x="672" d="M193 -16T121 84T49 378Q49 570 121 668T336 766Q479 766 551 668T623 378Q623 184 551 84T336 -16Q193 -16 121 84ZM393 106T427 132T477 217T493 378Q493 476 477 534T427 618T336 644Q279 644 245 618T195
534T179 378Q179 277 195 218T245 132T336 106Q393 106 427 132Z" />
<glyph unicode="P" glyph-name="P" horiz-adv-x="622" d="M417 750T473 720T561 630T593 486Q593 404 561 344T473 252T342 220H204V150L212 0H71L80 150V605L71 750H343Q417 750 473 720ZM391 339T427 372T463 486Q463 565 428 598T307 631H204V339H305Q391 339
427 372Z" />
<glyph unicode="Q" glyph-name="Q" horiz-adv-x="672" d="M623 241T587 151T480 19L548 -128H411L372 -14Q348 -16 336 -16Q193 -16 121 84T49 378Q49 570 121 668T336 766Q479 766 551 668T623 378Q623 241 587 151ZM179 280T194 222T240 136T324 106L265 233H399L429
134Q463 162 478 220T493 378Q493 476 477 534T427 618T336 644Q279 644 245 618T195 534T179 378Q179 280 194 222Z" />
<glyph unicode="R" glyph-name="R" horiz-adv-x="646" d="M631 0H450L371 150L325 220H204V150L214 0H71L80 150V605L71 750H333Q455 750 519 683T584 486Q584 401 549 340T451 247L515 150L631 0ZM204 339H295Q380 339 417 373T454 486Q454 566 419 598T297 631H204V339Z"
/>
<glyph unicode="S" glyph-name="S" horiz-adv-x="596" d="M155 -11T59 82L41 205L55 209Q168 111 281 111Q349 111 387 134T425 200Q425 228 411 246T362 280T261 314Q182 336 137 364T72 434T51 540Q51 642 117 701T297 760Q364 760 427 739T529 683L510 565L495
561Q470 595 418 616T310 638Q246 638 214 615T181 548Q181 518 194 498T239 463T329 433Q415 410 463 383T533 315T555 213Q555 107 485 48T298 -11Q155 -11 59 82Z" />
<glyph unicode="T" glyph-name="T" horiz-adv-x="558" d="M541 626L530 623L437 635H341V150L349 0H208L217 150V635H121L28 623L17 626L36 750H521L541 626Z" />
<glyph unicode="U" glyph-name="U" horiz-adv-x="641" d="M583 750L575 605V264Q575 122 513 53T320 -16Q191 -16 129 53T66 264V605L58 750H200L191 605V264Q191 181 221 144T320 106Q388 106 419 143T450 264V605L441 750H583Z" />
<glyph unicode="V" glyph-name="V" horiz-adv-x="629" d="M613 750L563 600L442 150L408 0H218L185 150L65 600L16 750H168L195 600L318 134L442 600L470 750H613Z" />
<glyph unicode="W" glyph-name="W" horiz-adv-x="901" d="M166 750L176 600L256 109L389 750H532L661 99L745 600L755 750H891L857 600L778 146L760 0H554L447 580L339 0H144L126 150L46 600L12 750H166Z" />
<glyph unicode="X" glyph-name="X" horiz-adv-x="642" d="M640 0H472L396 150L317 284L238 150L167 0H2L104 150L238 381L111 605L14 750H181L250 605L320 485L387 605L454 750H617L521 605L400 386L537 150L640 0Z" />
<glyph unicode="Y" glyph-name="Y" horiz-adv-x="604" d="M365 253V151L373 1H232L240 151V249L83 605L7 750H171L218 605L302 405L386 605L433 750H597L520 605L365 253Z" />
<glyph unicode="Z" glyph-name="Z" horiz-adv-x="602" d="M45 98L383 631H152L62 619L51 622L71 750H550L535 649L200 119H565L546 0H45V98Z" />
<glyph unicode="[" glyph-name="bracketleft" horiz-adv-x="335" d="M302 -19L309 -30L282 -135H71V750H282L309 645L302 634H192V-19H302Z" />
<glyph unicode="\" glyph-name="backslash" horiz-adv-x="405" d="M214 -80L193 70L62 655L22 800H167L188 655L319 70L361 -80H214Z" />
<glyph unicode="]" glyph-name="bracketright" horiz-adv-x="335" d="M264 -135H52L26 -30L33 -19H143V634H33L26 645L52 750H264V-135Z" />
<glyph unicode="^" glyph-name="asciicircum" horiz-adv-x="535" d="M489 515T498 505T511 493L505 477H360L268 652L175 477H30L24 493Q28 494 37 504T57 533L193 750H343L478 533Q489 515 498 505Z" />
<glyph unicode="_" glyph-name="underscore" horiz-adv-x="653" d="M6 -44H647V-160H6V-44Z" />
<glyph unicode="`" glyph-name="grave" horiz-adv-x="362" d="M308 660H200L59 814H212L308 660Z" />
<glyph unicode="a" glyph-name="a" horiz-adv-x="584" d="M43 225T70 271T143 344T244 371Q290 371 330 363T395 341V397Q395 446 364 471T271 496Q211 496 164 475T92 415L81 417L97 548Q130 579 181 596T289 614Q394 614 455 563T516 422V149L524 0H398L395
58Q376 26 330 5T232 -16Q144 -16 94 33T43 167Q43 225 70 271ZM168 132T188 112T254 91Q292 91 332 106T395 147V236Q371 250 334 258T256 267Q210 267 189 245T168 176Q168 132 188 112Z" />
<glyph unicode="b" glyph-name="b" horiz-adv-x="598" d="M442 612T495 537T549 301Q549 150 492 71T327 -8Q290 -8 252 11T196 60L192 0H66L75 149V655L66 800H204L196 655V576Q249 612 335 612Q442 612 495 537ZM354 108T378 126T413 186T424 301Q424 378 413
419T376 476T302 493Q232 493 196 477V144Q214 127 245 118T312 108Q354 108 378 126Z" />
<glyph unicode="c" glyph-name="c" horiz-adv-x="509" d="M168 -16T109 62T49 295Q49 447 111 529T295 612Q360 612 397 601T470 564L451 456L435 449Q412 473 384 483T308 493Q236 493 205 447T174 295Q174 222 187 181T231 122T319 104Q370 104 401 114T461
151L478 143L451 37Q412 6 380 -5T293 -16Q168 -16 109 62Z" />
<glyph unicode="d" glyph-name="d" horiz-adv-x="598" d="M523 149L532 0H406L402 60Q384 30 346 11T271 -8Q164 -8 107 71T49 301Q49 461 102 536T263 612Q349 612 402 576V655L394 800H532L523 655V149ZM321 108T352 117T402 144V476Q363 493 296 493Q248 493
222 477T185 419T174 301Q174 228 184 187T219 127T286 108Q321 108 352 117Z" />
<glyph unicode="e" glyph-name="e" horiz-adv-x="592" d="M168 -12T109 67T49 301Q49 453 112 534T302 616Q424 616 483 553T553 353L526 252H176Q179 197 194 166T240 121T327 107Q392 107 442 120T518 154L535 145L508 39Q471 11 424 0T302 -12Q168 -12 109
67ZM429 347Q428 425 399 461T306 497Q238 497 209 463T175 347H429Z" />
<glyph unicode="f" glyph-name="f" horiz-adv-x="429" d="M51 565L115 600Q115 714 152 765T271 816Q320 816 357 806T414 775L400 687L383 677Q359 701 303 701Q268 701 252 683T236 626V600H402V485H236V150L245 0H107L115 150V485H51V565Z" />
<glyph unicode="g" glyph-name="g" horiz-adv-x="598" d="M532 600L523 451V92Q523 -58 438 -134T197 -211L143 -118L150 -110Q221 -110 278 -89T369 -30T402 57V68Q383 32 345 12T264 -8Q162 -8 106 71T49 301Q49 461 102 536T263 612Q309 612 346 601T410 570L415
600H532ZM321 108T352 117T402 144V476Q363 493 296 493Q248 493 222 477T185 419T174 301Q174 228 184 187T219 127T286 108Q321 108 352 117Z" />
<glyph unicode="h" glyph-name="h" horiz-adv-x="588" d="M399 150V410Q399 452 379 474T320 496Q287 496 253 478T196 424V150L204 0H66L75 150V655L66 800H204L196 655V524Q223 565 267 586T368 607Q439 607 479 563T520 435V150L528 0H391L399 150Z" />
<glyph unicode="i" glyph-name="i" horiz-adv-x="269" d="M101 672T78 691T54 740Q54 770 77 789T134 808Q168 808 191 789T215 740Q215 710 192 691T134 672Q101 672 78 691ZM73 150V455L65 600H203L194 455V150L203 0H65L73 150Z" />
<glyph unicode="j" glyph-name="j" horiz-adv-x="272" d="M104 672T81 691T57 740Q57 770 80 789T137 808Q171 808 194 789T217 740Q217 710 194 691T137 672Q104 672 81 691ZM68 600H206L198 455V0Q140 -146 48 -216L-55 -119L-47 -109Q-28 -109 10 -66T77 35V455L68
600Z" />
<glyph unicode="k" glyph-name="k" horiz-adv-x="579" d="M577 0H416L354 145L279 287L196 186V150L204 0H66L75 150V655L66 800H204L196 655V337L288 455L381 600H550L418 455L354 377L484 145L577 0Z" />
<glyph unicode="l" glyph-name="l" horiz-adv-x="270" d="M75 150V655L66 800H204L196 655V150L204 0H66L75 150Z" />
<glyph unicode="m" glyph-name="m" horiz-adv-x="869" d="M680 150V410Q680 452 660 474T601 496Q575 496 548 485T498 450V435V150L507 0H369L377 150V410Q377 452 357 474T298 496Q272 496 245 485T196 451V150L204 0H66L75 150V455L66 600H176L192 541Q220
573 260 590T347 607Q395 607 429 586T482 524Q510 564 553 585T650 607Q721 607 761 563T801 435V150L810 0H672L680 150Z" />
<glyph unicode="n" glyph-name="n" horiz-adv-x="588" d="M399 150V410Q399 452 379 474T320 496Q287 496 253 478T196 424V150L204 0H66L75 150V455L66 600H176L196 524Q223 565 267 586T368 607Q439 607 479 563T520 435V150L528 0H391L399 150Z" />
<glyph unicode="o" glyph-name="o" horiz-adv-x="606" d="M171 -16T110 63T49 301Q49 459 110 537T303 616Q435 616 496 538T557 301Q557 143 496 64T303 -16Q171 -16 110 63ZM355 103T382 120T421 180T432 300Q432 378 421 420T383 479T303 497Q251 497 224 480T185
420T174 300Q174 222 185 180T223 121T303 103Q355 103 382 120Z" />
<glyph unicode="p" glyph-name="p" horiz-adv-x="598" d="M442 612T495 537T549 301Q549 150 492 71T327 -8Q290 -8 253 10T196 59V-50L204 -200H66L75 -50V451L66 600H183L188 570Q213 590 251 601T335 612Q442 612 495 537ZM354 108T378 126T413 186T424 301Q424
378 413 419T376 476T302 493Q235 493 196 476V144Q214 127 245 118T312 108Q354 108 378 126Z" />
<glyph unicode="q" glyph-name="q" horiz-adv-x="598" d="M523 -50L532 -200H394L402 -50V59Q383 29 346 11T271 -8Q164 -8 107 71T49 301Q49 461 102 536T263 612Q309 612 346 601T410 570L415 600H532L523 451V-50ZM321 108T352 117T402 144V476Q363 493 296
493Q248 493 222 477T185 419T174 301Q174 228 184 187T219 127T286 108Q321 108 352 117Z" />
<glyph unicode="r" glyph-name="r" horiz-adv-x="444" d="M395 607T428 593L408 487L395 478Q382 487 358 492T304 498Q236 498 196 441V150L204 0H66L75 150V455L66 600H176L193 535Q219 571 254 589T331 607Q395 607 428 593Z" />
<glyph unicode="s" glyph-name="s" horiz-adv-x="534" d="M203 -10T158 8T69 71L52 181L66 185Q110 149 159 130T257 111Q310 111 333 123T357 164Q357 191 331 209T229 251Q166 271 131 294T80 348T64 429Q64 517 118 565T272 613Q333 613 379 598T464 551L444
440L429 436Q411 462 368 478T281 494Q189 494 189 438Q189 418 199 404T235 378T312 351Q403 324 442 283T481 171Q481 83 427 37T269 -10Q203 -10 158 8Z" />
<glyph unicode="t" glyph-name="t" horiz-adv-x="444" d="M47 565L111 600L141 725H232V600H396V485H232V189Q232 108 297 108Q329 108 358 121T404 156L421 147L395 42Q360 12 332 0T266 -12Q184 -12 148 39T111 213V485H47V565Z" />
<glyph unicode="u" glyph-name="u" horiz-adv-x="588" d="M514 148L522 0H396L391 74Q362 32 318 10T220 -12Q149 -12 109 34T68 165V450L60 600H198L189 450V190Q189 146 210 123T268 99Q300 99 334 119T393 176V450L384 600H522L514 450V148Z" />
<glyph unicode="v" glyph-name="v" horiz-adv-x="558" d="M547 600L496 455L367 0H190L63 455L11 600H165L191 455L279 96L366 455L394 600H547Z" />
<glyph unicode="w" glyph-name="w" horiz-adv-x="859" d="M848 600L802 455L708 0H516L431 464L346 0H151L58 455L11 600H161L247 78L326 455L351 600H509L533 455L612 78L698 600H848Z" />
<glyph unicode="x" glyph-name="x" horiz-adv-x="581" d="M572 0H414L333 150L290 218L246 150L168 0H9L115 150L210 300L117 455L17 600H176L249 455L290 386L330 455L403 600H562L464 455L371 300L466 150L572 0Z" />
<glyph unicode="y" glyph-name="y" horiz-adv-x="558" d="M547 600L496 455L367 0Q310 -144 205 -216L103 -120L109 -108Q142 -99 183 -66T239 0H190L63 455L11 600H165L191 455L279 96L366 455L394 600H547Z" />
<glyph unicode="z" glyph-name="z" horiz-adv-x="536" d="M506 103L480 0H43V70L323 485H47L40 497L66 600H488V530L219 115H499L506 103Z" />
<glyph unicode="{" glyph-name="braceleft" horiz-adv-x="418" d="M363 -20L370 -31L344 -136H313Q222 -136 172 -100T122 14Q122 57 140 109Q154 151 154 183Q154 212 136 226T86 241H66V373H86Q118 373 136 387T154 431Q154 463 140 505Q122 558 122 600Q122
677 172 713T313 750H344L370 645L363 634H318Q283 634 261 615T239 563Q239 519 260 471Q271 445 275 427T279 386Q279 361 268 340T239 307Q257 296 268 275T279 228Q279 206 275 188T260 143Q239 95 239 51Q239 18 261 -1T318 -20H363Z" />
<glyph unicode="|" glyph-name="bar" horiz-adv-x="261" d="M81 -50V655L73 800H188L179 655V-50L188 -200H73L81 -50Z" />
<glyph unicode="}" glyph-name="braceright" horiz-adv-x="418" d="M352 373V241H332Q300 241 282 227T264 183Q264 151 278 109Q296 57 296 14Q296 -63 246 -99T105 -136H74L48 -31L55 -20H100Q135 -20 157 -1T179 51Q179 95 158 143Q147 169 143 187T139 228Q139
253 150 274T179 307Q161 318 150 339T139 386Q139 408 143 426T158 471Q179 519 179 563Q179 596 157 615T100 634H55L48 645L74 750H105Q196 750 246 714T296 600Q296 558 278 505Q264 463 264 431Q264 402 282 388T332 373H352Z" />
<glyph unicode="~" glyph-name="asciitilde" horiz-adv-x="505" d="M25 277Q61 336 101 361T195 387Q215 387 233 381T282 362Q308 351 323 346T355 340Q380 340 399 348T445 379H456L481 335Q444 277 404 252T310 226Q290 226 272 232T223 251Q197 262 182 267T150
273Q125 273 107 265T61 234H50L25 277Z" />
<glyph unicode="&#xa0;" glyph-name="uni00A0" horiz-adv-x="213" />
<glyph unicode="&#xa1;" glyph-name="exclamdown" horiz-adv-x="344" d="M211 607T238 585T266 528Q266 492 239 470T172 447Q132 447 105 469T78 528Q78 563 105 585T172 607Q211 607 238 585ZM237 0L250 -150H93L106 0L123 390H221L237 0Z" />
<glyph unicode="&#xa2;" glyph-name="cent" horiz-adv-x="510" d="M448 98Q417 74 392 63T334 47L342 -93H230L238 49Q140 65 93 142T45 356Q45 490 93 570T238 668V671L230 816H342L333 672Q377 669 407 658T467 625L447 517L431 510Q408 534 380 544T304 554Q232
554 201 508T170 356Q170 283 183 242T227 183T315 165Q366 165 397 175T457 212L474 204L448 98Z" />
<glyph unicode="&#xa3;" glyph-name="sterling" horiz-adv-x="605" d="M590 162L562 52Q554 23 525 12T430 0H51V66L79 103Q116 152 131 193T146 287V300H78V419H123L117 438Q96 501 96 558Q96 619 123 666T200 740T318 766Q403 766 457 722T530 593L421 576L408
584Q395 615 374 629T318 644Q277 644 254 619T230 549Q230 514 246 465Q258 427 260 419H478V300H278V287Q278 241 264 195T224 116H465Q494 116 526 130T581 166L590 162Z" />
<glyph unicode="&#xa4;" glyph-name="currency" horiz-adv-x="703" d="M572 229L683 133L590 41L494 151L490 155Q431 120 351 120Q271 120 214 157L205 148L111 39L18 131L127 226L137 236Q102 295 102 372Q102 449 137 508L130 515L20 611L113 703L209 593L214
588Q273 624 351 624Q431 624 488 587L497 596L592 705L685 613L576 518L566 508Q600 446 600 372Q600 293 567 235L572 229ZM412 239T443 273T475 372Q475 437 444 471T351 505Q291 505 259 471T227 372Q227 307 259 273T351 239Q412 239 443 273Z" />
<glyph unicode="&#xa5;" glyph-name="yen" horiz-adv-x="637" d="M453 422H566V303H381V232H566V113H382L390 -49H249L256 113H71V232H257V303H71V422H184L100 621L23 766H188L235 621L314 422H322L402 621L449 766H614L537 621L453 422Z" />
<glyph unicode="&#xa6;" glyph-name="brokenbar" horiz-adv-x="248" d="M75 655L67 800H181L173 655V405H75V655ZM75 -50V200H173V-50L181 -200H67L75 -50Z" />
<glyph unicode="&#xa7;" glyph-name="section" horiz-adv-x="545" d="M47 367T66 400T118 453Q87 476 74 506T60 582Q60 670 114 718T269 766Q330 766 376 751T460 704L440 593L425 589Q407 615 364 631T277 647Q185 647 185 591Q185 570 195 557T232 531T309
504Q405 474 451 432T498 324Q498 281 479 248T426 195Q456 171 470 140T484 67Q484 -21 430 -67T272 -114Q202 -114 158 -95T72 -33L55 77L69 81Q113 45 162 26T260 7Q313 7 336 19T360 60Q360 78 349 91T310 117T232 147Q132 179 90 217T47 325Q47 367 66 400ZM172
321T183 307T222 280T306 249Q338 256 355 272T373 309Q373 327 362 340T320 368T231 402Q203 394 188 378T172 341Q172 321 183 307Z" />
<glyph unicode="&#xa8;" glyph-name="dieresis" horiz-adv-x="490" d="M103 670T82 687T60 734Q60 763 82 781T136 799Q168 799 189 781T211 734Q211 705 190 688T136 670Q103 670 82 687ZM322 670T300 687T278 734Q278 763 300 781T354 799Q386 799 408 781T430
734Q430 705 408 688T354 670Q322 670 300 687Z" />
<glyph unicode="&#xa9;" glyph-name="copyright" horiz-adv-x="821" d="M301 -16T213 35T75 176T24 375Q24 485 74 574T213 715T410 766Q519 766 607 715T746 575T796 375Q796 266 746 177T608 36T410 -16Q301 -16 213 35ZM494 79T560 117T663 223T701 375Q701
460 664 527T560 633T410 671Q327 671 261 633T157 528T120 375Q120 291 157 224T261 118T410 79Q494 79 560 117ZM329 161T289 214T248 372Q248 474 290 530T416 587Q462 587 487 580T537 554L523 476L512 471Q496 486 478 492T426 499Q379 499 359 469T338 372Q338
325 347 299T377 261T437 250Q471 250 494 257T535 280L541 276L521 196Q489 174 471 168T416 161Q329 161 289 214Z" />
<glyph unicode="&#xaa;" glyph-name="ordfeminine" horiz-adv-x="470" d="M301 412L298 447Q279 427 244 413T173 398Q111 398 77 435T43 539Q43 615 89 660T212 705Q262 705 298 688V715Q298 743 279 758T227 774Q185 774 150 764T75 730L64 732L77 845Q161 893
246 893Q323 893 371 849T419 731V561L427 412H301ZM168 505T214 505Q235 505 257 513T298 538V590Q264 602 222 602Q194 602 181 590T168 551Q168 505 214 505Z" />
<glyph unicode="&#xab;" glyph-name="guillemotleft" horiz-adv-x="816" d="M402 66T415 54T432 41L426 25H257L38 298L257 571H426L432 555Q428 554 415 543T389 515L204 298L389 81Q402 66 415 54ZM729 66T742 54T759 41L753 25H583L365 298L583 571H753L759
555Q755 554 742 543T716 515L530 298L716 81Q729 66 742 54Z" />
<glyph unicode="&#xac;" glyph-name="logicalnot" horiz-adv-x="588" d="M533 407V75H412V291H40V407H533Z" />
<glyph unicode="&#xad;" glyph-name="uni00AD" horiz-adv-x="486" d="M43 366H444V250H43V366Z" />
<glyph unicode="&#xae;" glyph-name="registered" horiz-adv-x="460" d="M285 924T328 900T395 832T419 733Q419 679 395 635T328 567T231 542Q177 542 134 566T67 635T42 733Q42 788 66 831T134 899T231 924Q285 924 328 900ZM290 595T328 634T366 733Q366 794
328 832T231 871Q170 871 133 833T95 733Q95 673 133 634T231 595Q290 595 328 634ZM290 673L319 632H259L239 673L227 691H205V673L207 632H157L160 673V794L157 834H236Q307 834 307 762Q307 718 272 700L290 673ZM205 734H226Q260 734 260 762Q260 777 252 784T227
791H205V734Z" />
<glyph unicode="&#xaf;" glyph-name="overscore" horiz-adv-x="441" d="M381 770V685H60V770H381Z" />
<glyph unicode="&#xb0;" glyph-name="degree" horiz-adv-x="363" d="M116 609T73 648T30 751Q30 816 73 855T182 895Q249 895 291 856T334 751Q334 687 291 648T182 609Q116 609 73 648ZM207 695T222 709T238 751Q238 779 223 793T182 808Q156 808 141 794T125
751Q125 724 140 710T182 695Q207 695 222 709Z" />
<glyph unicode="&#xb1;" glyph-name="plusminus" horiz-adv-x="606" d="M550 453V337H363V220H242V337H56V453H242V570H363V453H550ZM56 176H550V60H56V176Z" />
<glyph unicode="&#xb2;" glyph-name="uni00B2" horiz-adv-x="445" d="M415 570L387 461Q380 435 349 424T256 412H55V475L175 601Q219 648 234 672T250 719Q250 744 234 758T190 772Q125 772 69 710L58 712L74 839Q102 862 140 875T222 889Q298 889 337 855T376
756Q376 706 352 662T272 564L233 527H291Q321 527 351 539T406 574L415 570Z" />
<glyph unicode="&#xb3;" glyph-name="uni00B3" horiz-adv-x="434" d="M342 673T367 640T393 549Q393 483 348 445T222 406Q164 406 130 414T64 444L51 551L62 553Q79 538 107 531T186 524Q228 524 247 535T266 570Q266 598 238 610T140 622H127V670L219 772H66L59
783L90 887H371V821L281 692Q342 673 367 640Z" />
<glyph unicode="&#xb4;" glyph-name="acute" horiz-adv-x="368" d="M308 814L168 660H60L156 814H308Z" />
<glyph unicode="&#xb5;" glyph-name="uni00B5" horiz-adv-x="611" d="M576 115L557 0H509Q471 0 442 24T406 82Q336 -12 226 -12Q207 -12 185 -7V-50L190 -200H70L75 -50V450L66 600H204L196 450V190Q196 146 216 123T275 99Q307 99 340 119T399 176V450L391 600H528L520
450V174Q520 127 559 119L576 115Z" />
<glyph unicode="&#xb6;" glyph-name="paragraph" horiz-adv-x="566" d="M495 -50L504 -200H413V660H339V-200H248L257 -50V295H223Q136 295 89 354T42 523Q42 633 89 691T223 750H504L495 605V-50Z" />
<glyph unicode="&#xb7;" glyph-name="middot" horiz-adv-x="303" d="M119 271T92 293T65 350Q65 385 92 408T159 431Q198 431 225 408T253 350Q253 315 226 293T159 271Q119 271 92 293Z" />
<glyph unicode="&#xb8;" glyph-name="cedilla" horiz-adv-x="353" d="M293 -45T293 -117Q293 -163 262 -189T178 -216Q148 -216 122 -209T79 -187L63 -108L70 -104Q91 -123 107 -130T142 -138Q159 -138 170 -129T181 -103Q181 -83 163 -73T114 -63L134 34H231L212
-22Q293 -45 293 -117Z" />
<glyph unicode="&#xb9;" glyph-name="uni00B9" horiz-adv-x="368" d="M72 771L194 887H285V562L294 412H156L164 562V708L72 645L57 652L72 771Z" />
<glyph unicode="&#xba;" glyph-name="ordmasculine" horiz-adv-x="477" d="M139 398T88 461T36 648Q36 772 87 833T239 895Q338 895 389 834T441 648Q441 524 390 461T239 398Q139 398 88 461ZM281 517T298 545T316 647Q316 720 299 748T239 776Q197 776 179 748T161
647Q161 574 179 546T239 517Q281 517 298 545Z" />
<glyph unicode="&#xbb;" glyph-name="guillemotright" horiz-adv-x="816" d="M452 298L233 25H64L58 41Q61 42 74 54T101 81L286 298L101 515Q88 531 75 542T58 555L64 571H233L452 298ZM779 298L560 25H391L385 41Q388 42 401 54T428 81L613 298L428 515Q415
531 402 542T385 555L391 571H560L779 298Z" />
<glyph unicode="&#xbc;" glyph-name="onequarter" horiz-adv-x="958" d="M72 634L194 750H285V425L294 275H156L164 425V571L72 508L57 515L72 634ZM264 150L573 605L653 750H809L694 605L385 150L297 0H151L264 150ZM884 68H843L847 0H709L713 68H517V139L747
475H838V164H884V68ZM717 291L637 164H717V291Z" />
<glyph unicode="&#xbd;" glyph-name="onehalf" horiz-adv-x="1047" d="M72 634L194 750H285V425L294 275H156L164 425V571L72 508L57 515L72 634ZM265 150L574 605L654 750H810L695 605L386 150L298 0H152L265 150ZM973 158L945 49Q938 23 907 12T814 0H613V63L733
189Q777 236 792 260T808 307Q808 332 792 346T748 360Q683 360 627 298L616 300L632 427Q660 450 698 463T780 477Q856 477 895 443T934 344Q934 294 910 250T830 152L791 115H849Q879 115 909 127T964 162L973 158Z" />
<glyph unicode="&#xbe;" glyph-name="threequarters" horiz-adv-x="979" d="M342 536T367 503T393 412Q393 346 348 308T222 269Q164 269 130 277T64 307L51 414L62 416Q79 401 107 394T186 387Q228 387 247 398T266 433Q266 461 238 473T140 485H127V533L219
635H66L59 646L90 750H371V684L281 555Q342 536 367 503ZM319 150L628 605L708 750H864L749 605L440 150L352 0H206L319 150ZM938 68H897L901 0H763L767 68H571V139L801 475H892V164H938V68ZM771 291L691 164H771V291Z" />
<glyph unicode="&#xbf;" glyph-name="questiondown" horiz-adv-x="444" d="M274 604T301 582T328 525Q328 489 301 467T234 444Q195 444 168 466T140 525Q140 560 167 582T234 604Q274 604 301 582ZM297 302T284 254T228 137Q207 102 198 80T189 39Q189 5 213
-13T277 -32Q308 -32 337 -24T388 -1L398 -6L376 -108Q343 -134 302 -146T216 -159Q171 -159 133 -140T73 -88T50 -11Q50 32 63 73T111 170Q148 231 162 276T176 387H297Q297 302 284 254Z" />
<glyph unicode="&#xc0;" glyph-name="Agrave" horiz-adv-x="652" d="M633 0H481L453 150L448 168L188 166L183 150L154 0H19L69 150L199 600L233 750H415L448 600L583 150L633 0ZM414 287L316 624L221 285L414 287ZM407 810H299L158 964H311L407 810Z" />
<glyph unicode="&#xc1;" glyph-name="Aacute" horiz-adv-x="652" d="M633 0H481L453 150L448 168L188 166L183 150L154 0H19L69 150L199 600L233 750H415L448 600L583 150L633 0ZM414 287L316 624L221 285L414 287ZM487 964L347 810H239L335 964H487Z" />
<glyph unicode="&#xc2;" glyph-name="Acircumflex" horiz-adv-x="652" d="M633 0H481L453 150L448 168L188 166L183 150L154 0H19L69 150L199 600L233 750H415L448 600L583 150L633 0ZM414 287L316 624L221 285L414 287ZM376 809L320 914L264 809H128L247 964H393L513
809H376Z" />
<glyph unicode="&#xc3;" glyph-name="Atilde" horiz-adv-x="652" d="M633 0H481L453 150L448 168L188 166L183 150L154 0H19L69 150L199 600L233 750H415L448 600L583 150L633 0ZM414 287L316 624L221 285L414 287ZM154 876T183 905T263 935Q282 935 297 931T334
919Q366 906 385 906Q404 906 412 912T420 931H490Q490 877 461 848T381 819Q353 819 311 835Q278 848 259 848Q224 848 224 822H154Q154 876 183 905Z" />
<glyph unicode="&#xc4;" glyph-name="Adieresis" horiz-adv-x="652" d="M633 0H481L453 150L448 168L188 166L183 150L154 0H19L69 150L199 600L233 750H415L448 600L583 150L633 0ZM414 287L316 624L221 285L414 287ZM180 820T159 837T137 884Q137 913 159 931T213
949Q245 949 266 931T288 884Q288 855 267 838T213 820Q180 820 159 837ZM399 820T377 837T355 884Q355 913 377 931T431 949Q463 949 485 931T507 884Q507 855 485 838T431 820Q399 820 377 837Z" />
<glyph unicode="&#xc5;" glyph-name="Aring" horiz-adv-x="652" d="M633 0H481L453 150L448 168L188 166L183 150L154 0H19L69 150L199 600L233 750H415L448 600L583 150L633 0ZM414 287L316 624L221 285L414 287ZM272 790T239 819T206 898Q206 947 239 977T322
1008Q373 1008 405 978T438 898Q438 849 405 820T322 790Q272 790 239 819ZM340 858T351 868T362 898Q362 918 351 928T322 939Q304 939 293 929T282 898Q282 879 293 869T322 858Q340 858 351 868Z" />
<glyph unicode="&#xc6;" glyph-name="AE" horiz-adv-x="898" d="M862 119L843 0H417V168L182 166L174 150L116 0H-44L42 150L269 603L333 750H853L834 631H542V446H806L787 327H542V119H862ZM417 287V643L241 286L417 287Z" />
<glyph unicode="&#xc7;" glyph-name="Ccedilla" horiz-adv-x="584" d="M459 -15T366 -16L365 -22Q446 -45 446 -117Q446 -163 415 -189T331 -216Q301 -216 275 -209T232 -187L216 -108L223 -104Q244 -123 260 -130T295 -138Q312 -138 323 -129T334 -103Q334 -83
316 -73T267 -63L278 -10Q195 4 145 49T72 175T49 378Q49 575 123 670T362 766Q425 766 465 754T545 710L525 601L505 592Q480 620 447 632T362 644Q296 644 257 617T199 532T180 378Q180 274 197 216T253 132T362 106Q424 106 464 119T534 162L553 154L527 52Q459
-15 366 -16Z" />
<glyph unicode="&#xc8;" glyph-name="Egrave" horiz-adv-x="561" d="M524 119L505 0H71L80 150V605L71 750H515L496 631H204V446H468L449 327H204V119H524ZM370 810H262L121 964H274L370 810Z" />
<glyph unicode="&#xc9;" glyph-name="Eacute" horiz-adv-x="561" d="M524 119L505 0H71L80 150V605L71 750H515L496 631H204V446H468L449 327H204V119H524ZM450 964L310 810H202L298 964H450Z" />
<glyph unicode="&#xca;" glyph-name="Ecircumflex" horiz-adv-x="561" d="M524 119L505 0H71L80 150V605L71 750H515L496 631H204V446H468L449 327H204V119H524ZM340 809L284 914L228 809H92L211 964H357L477 809H340Z" />
<glyph unicode="&#xcb;" glyph-name="Edieresis" horiz-adv-x="561" d="M524 119L505 0H71L80 150V605L71 750H515L496 631H204V446H468L449 327H204V119H524ZM144 820T123 837T101 884Q101 913 123 931T177 949Q209 949 230 931T252 884Q252 855 231 838T177
820Q144 820 123 837ZM363 820T341 837T319 884Q319 913 341 931T395 949Q427 949 449 931T471 884Q471 855 449 838T395 820Q363 820 341 837Z" />
<glyph unicode="&#xcc;" glyph-name="Igrave" horiz-adv-x="283" d="M80 150V605L71 750H212L204 605V150L212 0H71L80 150ZM226 810H118L-23 964H130L226 810Z" />
<glyph unicode="&#xcd;" glyph-name="Iacute" horiz-adv-x="283" d="M80 150V605L71 750H212L204 605V150L212 0H71L80 150ZM306 964L166 810H58L154 964H306Z" />
<glyph unicode="&#xce;" glyph-name="Icircumflex" horiz-adv-x="283" d="M80 150V605L71 750H212L204 605V150L212 0H71L80 150ZM195 809L139 914L83 809H-53L66 964H212L332 809H195Z" />
<glyph unicode="&#xcf;" glyph-name="Idieresis" horiz-adv-x="283" d="M80 150V605L71 750H212L204 605V150L212 0H71L80 150ZM0 820T-21 837T-43 884Q-43 913 -21 931T33 949Q65 949 86 931T108 884Q108 855 87 838T33 820Q0 820 -21 837ZM219 820T197 837T175
884Q175 913 197 931T251 949Q283 949 305 931T327 884Q327 855 305 838T251 820Q219 820 197 837Z" />
<glyph unicode="&#xd0;" glyph-name="Eth" horiz-adv-x="653" d="M467 750T535 659T604 378Q604 187 535 94T319 0H71L80 150V332H14V424H80V605L71 750H319Q467 750 535 659ZM376 119T409 145T458 227T473 378Q473 476 458 530T410 608T319 631H205V424H349V332H205V119H319Q376
119 409 145Z" />
<glyph unicode="&#xd1;" glyph-name="Ntilde" horiz-adv-x="675" d="M596 148L604 0H402L189 626V150L197 0H71L80 150V605L71 750H274L487 124V603L478 750H604L596 603V148ZM169 876T198 905T278 935Q297 935 312 931T349 919Q381 906 400 906Q419 906 427 912T435
931H505Q505 877 476 848T396 819Q368 819 326 835Q293 848 274 848Q239 848 239 822H169Q169 876 198 905Z" />
<glyph unicode="&#xd2;" glyph-name="Ograve" horiz-adv-x="672" d="M193 -16T121 84T49 378Q49 570 121 668T336 766Q479 766 551 668T623 378Q623 184 551 84T336 -16Q193 -16 121 84ZM393 106T427 132T477 217T493 378Q493 476 477 534T427 618T336 644Q279
644 245 618T195 534T179 378Q179 277 195 218T245 132T336 106Q393 106 427 132ZM420 810H312L171 964H324L420 810Z" />
<glyph unicode="&#xd3;" glyph-name="Oacute" horiz-adv-x="672" d="M193 -16T121 84T49 378Q49 570 121 668T336 766Q479 766 551 668T623 378Q623 184 551 84T336 -16Q193 -16 121 84ZM393 106T427 132T477 217T493 378Q493 476 477 534T427 618T336 644Q279
644 245 618T195 534T179 378Q179 277 195 218T245 132T336 106Q393 106 427 132ZM500 964L360 810H252L348 964H500Z" />
<glyph unicode="&#xd4;" glyph-name="Ocircumflex" horiz-adv-x="672" d="M193 -16T121 84T49 378Q49 570 121 668T336 766Q479 766 551 668T623 378Q623 184 551 84T336 -16Q193 -16 121 84ZM393 106T427 132T477 217T493 378Q493 476 477 534T427 618T336 644Q279
644 245 618T195 534T179 378Q179 277 195 218T245 132T336 106Q393 106 427 132ZM390 809L334 914L278 809H142L261 964H407L527 809H390Z" />
<glyph unicode="&#xd5;" glyph-name="Otilde" horiz-adv-x="672" d="M193 -16T121 84T49 378Q49 570 121 668T336 766Q479 766 551 668T623 378Q623 184 551 84T336 -16Q193 -16 121 84ZM393 106T427 132T477 217T493 378Q493 476 477 534T427 618T336 644Q279
644 245 618T195 534T179 378Q179 277 195 218T245 132T336 106Q393 106 427 132ZM168 876T197 905T277 935Q296 935 311 931T348 919Q380 906 399 906Q418 906 426 912T434 931H504Q504 877 475 848T395 819Q367 819 325 835Q292 848 273 848Q238 848 238 822H168Q168
876 197 905Z" />
<glyph unicode="&#xd6;" glyph-name="Odieresis" horiz-adv-x="672" d="M193 -16T121 84T49 378Q49 570 121 668T336 766Q479 766 551 668T623 378Q623 184 551 84T336 -16Q193 -16 121 84ZM393 106T427 132T477 217T493 378Q493 476 477 534T427 618T336 644Q279
644 245 618T195 534T179 378Q179 277 195 218T245 132T336 106Q393 106 427 132ZM194 820T173 837T151 884Q151 913 173 931T227 949Q259 949 280 931T302 884Q302 855 281 838T227 820Q194 820 173 837ZM413 820T391 837T369 884Q369 913 391 931T445 949Q477
949 499 931T521 884Q521 855 499 838T445 820Q413 820 391 837Z" />
<glyph unicode="&#xd7;" glyph-name="multiply" horiz-adv-x="534" d="M347 301L494 153L408 67L267 226L126 67L40 153L187 301L40 449L126 536L267 377L408 536L494 449L347 301Z" />
<glyph unicode="&#xd8;" glyph-name="Oslash" horiz-adv-x="672" d="M623 562T623 378Q623 184 551 84T336 -16Q242 -16 178 28L161 0H60L115 92Q49 191 49 378Q49 570 121 668T336 766Q432 766 494 723L510 750H611L557 660Q623 562 623 378ZM179 282T194 223L430
616Q395 644 336 644Q279 644 245 618T195 534T179 378Q179 282 194 223ZM393 106T427 132T477 217T493 378Q493 470 478 529L242 135Q277 106 336 106Q393 106 427 132Z" />
<glyph unicode="&#xd9;" glyph-name="Ugrave" horiz-adv-x="641" d="M583 750L575 605V264Q575 122 513 53T320 -16Q191 -16 129 53T66 264V605L58 750H200L191 605V264Q191 181 221 144T320 106Q388 106 419 143T450 264V605L441 750H583ZM405 810H297L156 964H309L405
810Z" />
<glyph unicode="&#xda;" glyph-name="Uacute" horiz-adv-x="641" d="M583 750L575 605V264Q575 122 513 53T320 -16Q191 -16 129 53T66 264V605L58 750H200L191 605V264Q191 181 221 144T320 106Q388 106 419 143T450 264V605L441 750H583ZM485 964L345 810H237L333
964H485Z" />
<glyph unicode="&#xdb;" glyph-name="Ucircumflex" horiz-adv-x="641" d="M583 750L575 605V264Q575 122 513 53T320 -16Q191 -16 129 53T66 264V605L58 750H200L191 605V264Q191 181 221 144T320 106Q388 106 419 143T450 264V605L441 750H583ZM374 809L318 914L262
809H126L245 964H391L511 809H374Z" />
<glyph unicode="&#xdc;" glyph-name="Udieresis" horiz-adv-x="641" d="M583 750L575 605V264Q575 122 513 53T320 -16Q191 -16 129 53T66 264V605L58 750H200L191 605V264Q191 181 221 144T320 106Q388 106 419 143T450 264V605L441 750H583ZM178 820T157 837T135
884Q135 913 157 931T211 949Q243 949 264 931T286 884Q286 855 265 838T211 820Q178 820 157 837ZM397 820T375 837T353 884Q353 913 375 931T429 949Q461 949 483 931T505 884Q505 855 483 838T429 820Q397 820 375 837Z" />
<glyph unicode="&#xdd;" glyph-name="Yacute" horiz-adv-x="604" d="M365 253V151L373 1H232L240 151V249L83 605L7 750H171L218 605L302 405L386 605L433 750H597L520 605L365 253ZM465 964L325 810H217L313 964H465Z" />
<glyph unicode="&#xde;" glyph-name="Thorn" horiz-adv-x="620" d="M438 600T487 572T565 493T593 376Q593 312 565 261T487 180T373 150H204L212 0H71L80 150V605L71 750H212L204 605V600H374Q438 600 487 572ZM397 269T430 295T463 376Q463 430 430 455T329
481H204V269H327Q397 269 430 295Z" />
<glyph unicode="&#xdf;" glyph-name="germandbls" horiz-adv-x="608" d="M60 150V573Q60 816 293 816Q382 816 437 765T493 628Q493 596 481 569T444 515Q414 483 406 468T397 437Q397 418 416 397T485 345Q587 281 587 168Q587 77 543 34T403 -10Q291 -10 243
47L226 160L240 164Q264 138 302 124T379 110Q421 110 441 124T462 173Q462 200 442 223T366 281Q316 312 294 346T272 425Q272 465 283 492T324 549Q349 575 358 592T368 628Q368 661 347 679T284 697Q236 697 209 665T181 565V150L189 0H51L60 150Z" />
<glyph unicode="&#xe0;" glyph-name="agrave" horiz-adv-x="584" d="M43 225T70 271T143 344T244 371Q290 371 330 363T395 341V397Q395 446 364 471T271 496Q211 496 164 475T92 415L81 417L97 548Q130 579 181 596T289 614Q394 614 455 563T516 422V149L524
0H398L395 58Q376 26 330 5T232 -16Q144 -16 94 33T43 167Q43 225 70 271ZM168 132T188 112T254 91Q292 91 332 106T395 147V236Q371 250 334 258T256 267Q210 267 189 245T168 176Q168 132 188 112ZM377 660H269L128 814H281L377 660Z" />
<glyph unicode="&#xe1;" glyph-name="aacute" horiz-adv-x="584" d="M43 225T70 271T143 344T244 371Q290 371 330 363T395 341V397Q395 446 364 471T271 496Q211 496 164 475T92 415L81 417L97 548Q130 579 181 596T289 614Q394 614 455 563T516 422V149L524
0H398L395 58Q376 26 330 5T232 -16Q144 -16 94 33T43 167Q43 225 70 271ZM168 132T188 112T254 91Q292 91 332 106T395 147V236Q371 250 334 258T256 267Q210 267 189 245T168 176Q168 132 188 112ZM457 814L317 660H209L305 814H457Z" />
<glyph unicode="&#xe2;" glyph-name="acircumflex" horiz-adv-x="584" d="M43 225T70 271T143 344T244 371Q290 371 330 363T395 341V397Q395 446 364 471T271 496Q211 496 164 475T92 415L81 417L97 548Q130 579 181 596T289 614Q394 614 455 563T516 422V149L524
0H398L395 58Q376 26 330 5T232 -16Q144 -16 94 33T43 167Q43 225 70 271ZM168 132T188 112T254 91Q292 91 332 106T395 147V236Q371 250 334 258T256 267Q210 267 189 245T168 176Q168 132 188 112ZM346 659L290 764L234 659H98L217 814H363L483 659H346Z" />
<glyph unicode="&#xe3;" glyph-name="atilde" horiz-adv-x="584" d="M43 225T70 271T143 344T244 371Q290 371 330 363T395 341V397Q395 446 364 471T271 496Q211 496 164 475T92 415L81 417L97 548Q130 579 181 596T289 614Q394 614 455 563T516 422V149L524
0H398L395 58Q376 26 330 5T232 -16Q144 -16 94 33T43 167Q43 225 70 271ZM168 132T188 112T254 91Q292 91 332 106T395 147V236Q371 250 334 258T256 267Q210 267 189 245T168 176Q168 132 188 112ZM124 726T153 755T233 785Q252 785 267 781T304 769Q336 756
355 756Q374 756 382 762T390 781H460Q460 727 431 698T351 669Q323 669 281 685Q248 698 229 698Q194 698 194 672H124Q124 726 153 755Z" />
<glyph unicode="&#xe4;" glyph-name="adieresis" horiz-adv-x="584" d="M43 225T70 271T143 344T244 371Q290 371 330 363T395 341V397Q395 446 364 471T271 496Q211 496 164 475T92 415L81 417L97 548Q130 579 181 596T289 614Q394 614 455 563T516 422V149L524
0H398L395 58Q376 26 330 5T232 -16Q144 -16 94 33T43 167Q43 225 70 271ZM168 132T188 112T254 91Q292 91 332 106T395 147V236Q371 250 334 258T256 267Q210 267 189 245T168 176Q168 132 188 112ZM151 670T130 687T108 734Q108 763 130 781T184 799Q216 799
237 781T259 734Q259 705 238 688T184 670Q151 670 130 687ZM370 670T348 687T326 734Q326 763 348 781T402 799Q434 799 456 781T478 734Q478 705 456 688T402 670Q370 670 348 687Z" />
<glyph unicode="&#xe5;" glyph-name="aring" horiz-adv-x="584" d="M43 225T70 271T143 344T244 371Q290 371 330 363T395 341V397Q395 446 364 471T271 496Q211 496 164 475T92 415L81 417L97 548Q130 579 181 596T289 614Q394 614 455 563T516 422V149L524 0H398L395
58Q376 26 330 5T232 -16Q144 -16 94 33T43 167Q43 225 70 271ZM168 132T188 112T254 91Q292 91 332 106T395 147V236Q371 250 334 258T256 267Q210 267 189 245T168 176Q168 132 188 112ZM243 640T210 669T177 748Q177 797 210 827T293 858Q344 858 376 828T409
748Q409 699 376 670T293 640Q243 640 210 669ZM311 708T322 718T333 748Q333 768 322 778T293 789Q275 789 264 779T253 748Q253 729 264 719T293 708Q311 708 322 718Z" />
<glyph unicode="&#xe6;" glyph-name="ae" horiz-adv-x="941" d="M741 107T792 120T867 154L884 145L858 39Q821 11 773 0T652 -12Q511 -12 450 77Q421 33 361 9T223 -16Q145 -16 90 27T34 164Q34 259 95 304T284 348H400V352V397Q400 449 366 472T267 496Q137
496 84 415L73 417L89 548Q124 580 174 597T285 614Q415 614 474 548Q539 616 652 616Q774 616 833 553T902 353L876 252H525Q528 197 543 166T590 121T676 107Q741 107 792 120ZM587 497T558 464T524 347H778Q778 425 749 461T656 497Q587 497 558 464ZM296 91T340
111T411 172Q401 210 400 252H284Q211 252 183 233T155 166Q155 130 176 111T238 91Q296 91 340 111Z" />
<glyph unicode="&#xe7;" glyph-name="ccedilla" horiz-adv-x="509" d="M417 10T389 -1T322 -15L320 -22Q401 -45 401 -117Q401 -163 370 -189T286 -216Q256 -216 230 -209T187 -187L171 -108L178 -104Q199 -123 215 -130T250 -138Q267 -138 278 -129T289 -103Q289
-83 271 -73T222 -63L233 -11Q49 24 49 295Q49 447 111 529T295 612Q360 612 397 601T470 564L451 456L435 449Q412 473 384 483T308 493Q236 493 205 447T174 295Q174 222 187 181T231 122T319 104Q370 104 401 114T461 151L478 143L451 37Q417 10 389 -1Z" />
<glyph unicode="&#xe8;" glyph-name="egrave" horiz-adv-x="592" d="M168 -12T109 67T49 301Q49 453 112 534T302 616Q424 616 483 553T553 353L526 252H176Q179 197 194 166T240 121T327 107Q392 107 442 120T518 154L535 145L508 39Q471 11 424 0T302 -12Q168
-12 109 67ZM429 347Q428 425 399 461T306 497Q238 497 209 463T175 347H429ZM386 660H278L137 814H290L386 660Z" />
<glyph unicode="&#xe9;" glyph-name="eacute" horiz-adv-x="592" d="M168 -12T109 67T49 301Q49 453 112 534T302 616Q424 616 483 553T553 353L526 252H176Q179 197 194 166T240 121T327 107Q392 107 442 120T518 154L535 145L508 39Q471 11 424 0T302 -12Q168
-12 109 67ZM429 347Q428 425 399 461T306 497Q238 497 209 463T175 347H429ZM466 814L326 660H218L314 814H466Z" />
<glyph unicode="&#xea;" glyph-name="ecircumflex" horiz-adv-x="592" d="M168 -12T109 67T49 301Q49 453 112 534T302 616Q424 616 483 553T553 353L526 252H176Q179 197 194 166T240 121T327 107Q392 107 442 120T518 154L535 145L508 39Q471 11 424 0T302 -12Q168
-12 109 67ZM429 347Q428 425 399 461T306 497Q238 497 209 463T175 347H429ZM356 659L300 764L244 659H108L227 814H373L493 659H356Z" />
<glyph unicode="&#xeb;" glyph-name="edieresis" horiz-adv-x="592" d="M168 -12T109 67T49 301Q49 453 112 534T302 616Q424 616 483 553T553 353L526 252H176Q179 197 194 166T240 121T327 107Q392 107 442 120T518 154L535 145L508 39Q471 11 424 0T302 -12Q168
-12 109 67ZM429 347Q428 425 399 461T306 497Q238 497 209 463T175 347H429ZM160 670T139 687T117 734Q117 763 139 781T193 799Q225 799 246 781T268 734Q268 705 247 688T193 670Q160 670 139 687ZM379 670T357 687T335 734Q335 763 357 781T411 799Q443 799
465 781T487 734Q487 705 465 688T411 670Q379 670 357 687Z" />
<glyph unicode="&#xec;" glyph-name="igrave" horiz-adv-x="270" d="M75 150V455L66 600H204L196 455V150L204 0H66L75 150ZM219 660H111L-30 814H123L219 660Z" />
<glyph unicode="&#xed;" glyph-name="iacute" horiz-adv-x="270" d="M75 150V455L66 600H204L196 455V150L204 0H66L75 150ZM299 814L159 660H51L147 814H299Z" />
<glyph unicode="&#xee;" glyph-name="icircumflex" horiz-adv-x="270" d="M75 150V455L66 600H204L196 455V150L204 0H66L75 150ZM189 659L133 764L77 659H-59L60 814H206L326 659H189Z" />
<glyph unicode="&#xef;" glyph-name="idieresis" horiz-adv-x="270" d="M75 150V455L66 600H204L196 455V150L204 0H66L75 150ZM-7 670T-28 687T-50 734Q-50 763 -28 781T26 799Q58 799 79 781T101 734Q101 705 80 688T26 670Q-7 670 -28 687ZM212 670T190 687T168
734Q168 763 190 781T244 799Q276 799 298 781T320 734Q320 705 298 688T244 670Q212 670 190 687Z" />
<glyph unicode="&#xf0;" glyph-name="eth" horiz-adv-x="597" d="M470 541T507 458T544 285Q544 138 482 61T303 -16Q229 -16 174 16T90 106T60 242Q60 369 112 433T268 497Q319 497 371 471Q342 521 287 571L92 496V584L212 630Q175 655 127 683V697L185 759Q269
716 326 673L492 736V650L396 613Q470 541 507 458ZM363 103T391 147T419 285Q419 319 415 346Q392 362 363 371T303 380Q241 380 213 347T185 242Q185 179 217 141T303 103Q363 103 391 147Z" />
<glyph unicode="&#xf1;" glyph-name="ntilde" horiz-adv-x="588" d="M399 150V410Q399 452 379 474T320 496Q287 496 253 478T196 424V150L204 0H66L75 150V455L66 600H176L196 524Q223 565 267 586T368 607Q439 607 479 563T520 435V150L528 0H391L399 150ZM129
726T158 755T238 785Q257 785 272 781T309 769Q341 756 360 756Q379 756 387 762T395 781H465Q465 727 436 698T356 669Q328 669 286 685Q253 698 234 698Q199 698 199 672H129Q129 726 158 755Z" />
<glyph unicode="&#xf2;" glyph-name="ograve" horiz-adv-x="606" d="M171 -16T110 63T49 301Q49 459 110 537T303 616Q435 616 496 538T557 301Q557 143 496 64T303 -16Q171 -16 110 63ZM355 103T382 120T421 180T432 300Q432 378 421 420T383 479T303 497Q251
497 224 480T185 420T174 300Q174 222 185 180T223 121T303 103Q355 103 382 120ZM387 660H279L138 814H291L387 660Z" />
<glyph unicode="&#xf3;" glyph-name="oacute" horiz-adv-x="606" d="M171 -16T110 63T49 301Q49 459 110 537T303 616Q435 616 496 538T557 301Q557 143 496 64T303 -16Q171 -16 110 63ZM355 103T382 120T421 180T432 300Q432 378 421 420T383 479T303 497Q251
497 224 480T185 420T174 300Q174 222 185 180T223 121T303 103Q355 103 382 120ZM467 814L327 660H219L315 814H467Z" />
<glyph unicode="&#xf4;" glyph-name="ocircumflex" horiz-adv-x="606" d="M171 -16T110 63T49 301Q49 459 110 537T303 616Q435 616 496 538T557 301Q557 143 496 64T303 -16Q171 -16 110 63ZM355 103T382 120T421 180T432 300Q432 378 421 420T383 479T303 497Q251
497 224 480T185 420T174 300Q174 222 185 180T223 121T303 103Q355 103 382 120ZM357 659L301 764L245 659H109L228 814H374L494 659H357Z" />
<glyph unicode="&#xf5;" glyph-name="otilde" horiz-adv-x="606" d="M171 -16T110 63T49 301Q49 459 110 537T303 616Q435 616 496 538T557 301Q557 143 496 64T303 -16Q171 -16 110 63ZM355 103T382 120T421 180T432 300Q432 378 421 420T383 479T303 497Q251
497 224 480T185 420T174 300Q174 222 185 180T223 121T303 103Q355 103 382 120ZM135 726T164 755T244 785Q263 785 278 781T315 769Q347 756 366 756Q385 756 393 762T401 781H471Q471 727 442 698T362 669Q334 669 292 685Q259 698 240 698Q205 698 205 672H135Q135
726 164 755Z" />
<glyph unicode="&#xf6;" glyph-name="odieresis" horiz-adv-x="606" d="M171 -16T110 63T49 301Q49 459 110 537T303 616Q435 616 496 538T557 301Q557 143 496 64T303 -16Q171 -16 110 63ZM355 103T382 120T421 180T432 300Q432 378 421 420T383 479T303 497Q251
497 224 480T185 420T174 300Q174 222 185 180T223 121T303 103Q355 103 382 120ZM161 670T140 687T118 734Q118 763 140 781T194 799Q226 799 247 781T269 734Q269 705 248 688T194 670Q161 670 140 687ZM380 670T358 687T336 734Q336 763 358 781T412 799Q444
799 466 781T488 734Q488 705 466 688T412 670Q380 670 358 687Z" />
<glyph unicode="&#xf7;" glyph-name="divide" horiz-adv-x="546" d="M242 425T220 443T197 489Q197 518 219 536T273 554Q305 554 327 536T349 489Q349 461 327 443T273 425Q242 425 220 443ZM26 366H520V250H26V366ZM241 61T219 79T196 125Q196 154 218 172T272
190Q304 190 326 172T349 125Q349 97 327 79T272 61Q241 61 219 79Z" />
<glyph unicode="&#xf8;" glyph-name="oslash" horiz-adv-x="606" d="M557 451T557 301Q557 143 496 64T303 -16Q220 -16 164 16L153 0H55L103 73Q49 150 49 301Q49 459 110 537T303 616Q387 616 442 584L453 600H551L503 528Q557 451 557 301ZM174 229T182 192L376
483Q349 497 303 497Q251 497 224 480T185 420T174 300Q174 229 182 192ZM355 103T382 120T421 180T432 300Q432 372 424 408L230 117Q257 103 303 103Q355 103 382 120Z" />
<glyph unicode="&#xf9;" glyph-name="ugrave" horiz-adv-x="588" d="M514 148L522 0H396L391 74Q362 32 318 10T220 -12Q149 -12 109 34T68 165V450L60 600H198L189 450V190Q189 146 210 123T268 99Q300 99 334 119T393 176V450L384 600H522L514 450V148ZM376
660H268L127 814H280L376 660Z" />
<glyph unicode="&#xfa;" glyph-name="uacute" horiz-adv-x="588" d="M514 148L522 0H396L391 74Q362 32 318 10T220 -12Q149 -12 109 34T68 165V450L60 600H198L189 450V190Q189 146 210 123T268 99Q300 99 334 119T393 176V450L384 600H522L514 450V148ZM456
814L316 660H208L304 814H456Z" />
<glyph unicode="&#xfb;" glyph-name="ucircumflex" horiz-adv-x="588" d="M514 148L522 0H396L391 74Q362 32 318 10T220 -12Q149 -12 109 34T68 165V450L60 600H198L189 450V190Q189 146 210 123T268 99Q300 99 334 119T393 176V450L384 600H522L514 450V148ZM345
659L289 764L233 659H97L216 814H362L482 659H345Z" />
<glyph unicode="&#xfc;" glyph-name="udieresis" horiz-adv-x="588" d="M514 148L522 0H396L391 74Q362 32 318 10T220 -12Q149 -12 109 34T68 165V450L60 600H198L189 450V190Q189 146 210 123T268 99Q300 99 334 119T393 176V450L384 600H522L514 450V148ZM150
670T129 687T107 734Q107 763 129 781T183 799Q215 799 236 781T258 734Q258 705 237 688T183 670Q150 670 129 687ZM369 670T347 687T325 734Q325 763 347 781T401 799Q433 799 455 781T477 734Q477 705 455 688T401 670Q369 670 347 687Z" />
<glyph unicode="&#xfd;" glyph-name="yacute" horiz-adv-x="558" d="M547 600L496 455L367 0Q310 -144 205 -216L103 -120L109 -108Q142 -99 183 -66T239 0H190L63 455L11 600H165L191 455L279 96L366 455L394 600H547ZM446 814L306 660H198L294 814H446Z" />
<glyph unicode="&#xfe;" glyph-name="thorn" horiz-adv-x="598" d="M442 612T495 537T549 301Q549 150 492 71T327 -8Q290 -8 253 10T196 59V-50L204 -200H66L75 -50V655L66 800H204L196 655V576Q249 612 335 612Q442 612 495 537ZM354 108T378 126T413 186T424
301Q424 378 413 419T376 476T302 493Q235 493 196 476V144Q214 127 245 118T312 108Q354 108 378 126Z" />
<glyph unicode="&#xff;" glyph-name="ydieresis" horiz-adv-x="558" d="M547 600L496 455L367 0Q310 -144 205 -216L103 -120L109 -108Q142 -99 183 -66T239 0H190L63 455L11 600H165L191 455L279 96L366 455L394 600H547ZM140 670T119 687T97 734Q97 763 119
781T173 799Q205 799 226 781T248 734Q248 705 227 688T173 670Q140 670 119 687ZM359 670T337 687T315 734Q315 763 337 781T391 799Q423 799 445 781T467 734Q467 705 445 688T391 670Q359 670 337 687Z" />
<glyph unicode="&#x2013;" glyph-name="endash" horiz-adv-x="656" d="M64 366H592V250H64V366Z" />
<glyph unicode="&#x2014;" glyph-name="emdash" horiz-adv-x="856" d="M64 366H792V250H64V366Z" />
<glyph unicode="&#x2018;" glyph-name="quoteleft" horiz-adv-x="259" d="M173 751T198 729T224 672Q224 636 198 613T130 590Q86 590 60 615T34 683Q34 734 67 787T148 861L180 829L178 825Q161 814 149 794T135 752Q173 751 198 729Z" />
<glyph unicode="&#x2019;" glyph-name="quoteright" horiz-adv-x="259" d="M173 842T199 817T225 750Q225 698 192 645T111 571L79 603L81 607Q98 618 110 639T124 680Q86 681 61 703T35 760Q35 796 61 819T129 842Q173 842 199 817Z" />
<glyph unicode="&#x201a;" glyph-name="quotesinglbase" horiz-adv-x="286" d="M186 153T212 128T238 61Q238 9 205 -44T124 -118L92 -86L94 -82Q111 -71 123 -50T137 -9Q99 -8 74 14T48 71Q48 107 74 130T142 153Q186 153 212 128Z" />
<glyph unicode="&#x201c;" glyph-name="quotedblleft" horiz-adv-x="491" d="M173 1003T198 981T224 924Q224 888 198 865T130 842Q86 842 60 867T34 935Q34 986 67 1039T148 1113L180 1081L178 1077Q161 1066 149 1046T135 1004Q173 1003 198 981ZM405 748T430
726T456 669Q456 633 430 610T362 587Q318 587 292 612T266 680Q266 731 299 784T380 858L412 826L410 822Q393 811 381 791T367 749Q405 748 430 726Z" />
<glyph unicode="&#x201d;" glyph-name="quotedblright" horiz-adv-x="491" d="M173 842T199 817T225 750Q225 698 192 645T111 571L79 603L81 607Q98 618 110 639T124 680Q86 681 61 703T35 760Q35 796 61 819T129 842Q173 842 199 817ZM405 842T431 817T457 750Q457
698 424 645T343 571L311 603L313 607Q330 618 342 639T356 680Q318 681 293 703T267 760Q267 796 293 819T361 842Q405 842 431 817Z" />
<glyph unicode="&#x201e;" glyph-name="quotedblbase" horiz-adv-x="518" d="M186 153T212 128T238 61Q238 9 205 -44T124 -118L92 -86L94 -82Q111 -71 123 -50T137 -9Q99 -8 74 14T48 71Q48 107 74 130T142 153Q186 153 212 128ZM418 153T444 128T470 61Q470
9 437 -44T356 -118L324 -86L326 -82Q343 -71 355 -50T369 -9Q331 -8 306 14T280 71Q280 107 306 130T374 153Q418 153 444 128Z" />
<glyph unicode="&#x2022;" glyph-name="bullet" horiz-adv-x="369" d="M285 260T276 243T250 215Q225 180 184 180Q164 180 148 189T120 214Q84 239 84 280Q84 322 118 346Q143 382 184 382Q205 382 222 372T252 345Q285 320 285 280Q285 260 276 243Z" />
<glyph unicode="&#x2039;" glyph-name="guilsinglleft" horiz-adv-x="490" d="M402 66T415 54T432 41L426 25H257L38 298L257 571H426L432 555Q428 554 415 543T389 515L204 298L389 81Q402 66 415 54Z" />
<glyph unicode="&#x203a;" glyph-name="guilsinglright" horiz-adv-x="490" d="M452 298L233 25H64L58 41Q61 42 74 54T101 81L286 298L101 515Q88 531 75 542T58 555L64 571H233L452 298Z" />
</font>
</defs>
</svg>
