<?xml version="1.0" standalone="no"?>
<!DOCTYPE svg PUBLIC "-//W3C//DTD SVG 1.1//EN" "http://www.w3.org/Graphics/SVG/1.1/DTD/svg11.dtd">
<svg xmlns="http://www.w3.org/2000/svg">
<defs >
<font id="Farro" horiz-adv-x="558" ><font-face
    font-family="Farro"
    units-per-em="1000"
    panose-1="0 0 8 0 0 0 0 0 0 0"
    ascent="800"
    descent="-200"
    alphabetic="0" />
<glyph unicode=" " glyph-name="space" horiz-adv-x="200" />
<glyph unicode="!" glyph-name="exclam" horiz-adv-x="334" d="M92 600L77 750H257L242 600L224 210H110L92 600ZM124 -10T95 14T65 77Q65 116 94 140T167 165Q210 165 239 141T269 77Q269 38 240 14T167 -10Q124 -10 95 14Z" />
<glyph unicode="&quot;" glyph-name="quotedbl" horiz-adv-x="412" d="M69 630T56 699T42 795Q42 823 62 839T113 855Q142 855 161 839T180 795Q180 769 167 700T138 590H84Q69 630 56 699ZM259 630T246 699T232 795Q232 823 252 839T303 855Q332 855 351 839T370
795Q370 769 357 700T328 590H274Q259 630 246 699Z" />
<glyph unicode="#" glyph-name="numbersign" horiz-adv-x="702" d="M545 473L525 269H648V144H513V-6H364L390 144H263V-6H114L140 144H25V269H152L172 473H54V598H184V743H335L307 598H434V743H585L557 598H677V473H545ZM422 473H295L275 269H402L422 473Z" />
<glyph unicode="$" glyph-name="dollar" horiz-adv-x="630" d="M602 110T543 57T373 -8L379 -93H249L255 -7Q142 9 51 104L28 255L42 259Q157 146 259 124V305Q140 326 87 379T34 528Q34 633 91 689T253 757L249 816H379L375 757Q434 749 482 727T576 663L554
528L539 524Q518 558 471 586T369 625V433Q490 414 546 363T602 206Q602 110 543 57ZM170 481T259 453V625Q211 619 191 600T170 545Q170 481 259 453ZM418 129T441 147T465 199Q465 234 444 253T369 285V123Q418 129 441 147Z" />
<glyph unicode="%" glyph-name="percent" horiz-adv-x="827" d="M28 370T28 568Q28 766 194 766Q360 766 360 568Q360 471 320 421T194 370Q28 370 28 568ZM188 150L497 605L574 750H753L637 605L328 150L243 0H73L188 150ZM247 482T247 564Q247 607 234 626T194
646Q140 646 140 564Q140 482 194 482Q247 482 247 564ZM467 -8T467 190Q467 388 633 388Q799 388 799 190Q799 -8 633 -8Q467 -8 467 190ZM686 104T686 186Q686 229 673 248T633 268Q579 268 579 186Q579 104 633 104Q686 104 686 186Z" />
<glyph unicode="&amp;" glyph-name="ampersand" horiz-adv-x="720" d="M15 262T50 310T167 396Q117 485 117 554Q117 653 166 706T317 760Q417 760 468 710T520 559Q520 486 480 429T365 340L390 311Q436 259 460 229L486 266Q509 299 522 319L545 398H707Q682
335 644 274T558 159Q605 129 636 129Q681 129 721 139L732 133L691 12Q668 2 652 -1T608 -4Q573 -4 532 16T450 76Q403 33 351 11T248 -11Q129 -11 72 37T15 182Q15 262 50 310ZM251 521T293 435Q343 466 364 495T386 562Q386 594 369 612T321 630Q251 630 251
559Q251 521 293 435ZM149 159T173 140T239 120Q286 120 346 151Q277 222 225 301Q182 273 166 250T149 194Q149 159 173 140Z" />
<glyph unicode="&apos;" glyph-name="quotesingle" horiz-adv-x="222" d="M69 630T56 699T42 795Q42 823 62 839T113 855Q142 855 161 839T180 795Q180 769 167 700T138 590H84Q69 630 56 699Z" />
<glyph unicode="(" glyph-name="parenleft" horiz-adv-x="351" d="M198 -159Q60 16 60 309Q60 602 198 777H322L333 763Q261 663 234 559T207 309Q207 165 236 57T333 -145L322 -159H198Z" />
<glyph unicode=")" glyph-name="parenright" horiz-adv-x="351" d="M18 -145Q86 -51 115 57T144 309Q144 455 117 559T18 763L29 777H153Q291 602 291 309Q291 16 153 -159H29L18 -145Z" />
<glyph unicode="*" glyph-name="asterisk" horiz-adv-x="344" d="M88 452T72 467T55 500Q55 527 124 578Q64 579 40 590T15 626Q15 646 27 661T57 677Q69 677 91 667T141 636Q126 685 126 716Q126 734 139 745T172 756Q192 756 205 745T218 716Q218 685 203 636Q231
656 253 666T287 677Q305 677 317 662T329 626Q329 601 305 590T220 578Q289 527 289 500Q289 482 273 467T237 452Q217 452 203 472T172 542Q156 493 142 473T107 452Q88 452 72 467Z" />
<glyph unicode="+" glyph-name="plus" horiz-adv-x="544" d="M522 240H342V43H202V240H22V375H202V573H342V375H522V240Z" />
<glyph unicode="," glyph-name="comma" horiz-adv-x="277" d="M186 165T214 138T242 65Q242 9 207 -43T119 -114L85 -77L87 -72Q128 -49 129 -11Q88 -9 62 15T35 76Q35 115 64 140T138 165Q186 165 214 138Z" />
<glyph unicode="-" glyph-name="hyphen" horiz-adv-x="495" d="M35 375H460V240H35V375Z" />
<glyph unicode="." glyph-name="period" horiz-adv-x="280" d="M97 -10T68 14T38 77Q38 116 67 140T140 165Q183 165 212 141T242 77Q242 38 213 14T140 -10Q97 -10 68 14Z" />
<glyph unicode="/" glyph-name="slash" horiz-adv-x="396" d="M72 70L203 655L220 800H391L349 655L218 70L200 -80H28L72 70Z" />
<glyph unicode="0" glyph-name="zero" horiz-adv-x="596" d="M205 -16T149 24T66 151T40 381Q40 519 66 603T148 727T298 766Q391 766 447 727T530 604T556 381Q556 238 530 151T448 24T298 -16Q205 -16 149 24ZM343 122T367 143T401 219T412 375Q412 477 402
531T367 606T298 628Q253 628 229 607T195 531T184 375Q184 273 194 219T229 144T298 122Q343 122 367 143Z" />
<glyph unicode="1" glyph-name="one" horiz-adv-x="400" d="M37 593L220 750H330V150L340 0H180L190 150V548L35 446L20 453L37 593Z" />
<glyph unicode="2" glyph-name="two" horiz-adv-x="534" d="M514 181L481 52Q474 24 444 12T349 0H38V82L198 300Q273 401 299 453T326 540Q326 582 302 601T227 620Q168 620 123 601T53 544L42 546L60 694Q94 724 144 740T247 757Q352 757 412 708T473 567Q473
523 464 490T426 408T333 265L244 135H389Q454 135 505 185L514 181Z" />
<glyph unicode="3" glyph-name="three" horiz-adv-x="539" d="M415 414T453 353T492 204Q492 141 461 91T374 13T247 -16Q188 -16 136 0T50 47L32 195L43 197Q92 121 227 121Q277 121 311 150T345 223Q345 280 302 309T174 339H149V387L283 616H50L43 627L74 750H463V668L342
438Q415 414 453 353Z" />
<glyph unicode="4" glyph-name="four" horiz-adv-x="584" d="M479 170V150L489 0H329L339 150V170H23V265L369 750H479V305H544V170H479ZM339 305V525L201 305H339Z" />
<glyph unicode="5" glyph-name="five" horiz-adv-x="548" d="M368 474T435 412T503 223Q503 151 473 97T387 14T258 -16Q199 -16 147 0T61 47L43 195L54 197Q103 121 238 121Q288 121 322 150T356 223Q356 279 325 309T238 339H66V396L102 750H479L460 626L444
615H232L220 474H238Q368 474 435 412Z" />
<glyph unicode="6" glyph-name="six" horiz-adv-x="562" d="M429 477T479 417T530 230Q530 154 501 99T417 14T293 -16Q199 -16 144 24T64 147T40 358Q40 550 107 654T314 759Q368 759 409 749T489 713L465 588L454 590Q424 608 393 616T314 624Q268 624 241 605T200
544T184 430Q212 455 244 466T325 477Q429 477 479 417ZM337 124T361 148T386 230Q386 291 363 315T284 339Q217 339 184 304V268Q184 200 210 162T284 124Q337 124 361 148Z" />
<glyph unicode="7" glyph-name="seven" horiz-adv-x="506" d="M488 668L278 0H117L316 616H17L8 620L41 750H488V668Z" />
<glyph unicode="8" glyph-name="eight" horiz-adv-x="578" d="M488 367T515 319T543 207Q543 103 474 44T290 -16Q169 -16 102 39T35 195Q35 252 61 298T138 373Q95 403 70 446T45 537Q45 609 79 661T169 739T294 766Q361 766 413 741T495 670T525 562Q525 509
505 470T437 398Q488 367 515 319ZM240 628T215 608T189 550Q189 482 324 441Q357 465 371 490T386 550Q386 588 360 608T288 628Q240 628 215 608ZM341 125T370 146T399 216Q399 255 360 282T246 328Q209 309 190 280T171 216Q171 171 200 148T283 125Q341 125
370 146Z" />
<glyph unicode="9" glyph-name="nine" horiz-adv-x="562" d="M363 766T418 726T498 603T522 392Q522 200 455 96T248 -9Q194 -9 153 1T73 37L97 162L108 160Q138 142 169 134T248 126Q294 126 321 145T362 206T378 320Q350 295 318 284T237 273Q133 273 83 333T32
520Q32 596 61 651T145 736T269 766Q363 766 418 726ZM345 411T378 446V482Q378 550 352 588T278 626Q225 626 201 602T176 520Q176 459 199 435T278 411Q345 411 378 446Z" />
<glyph unicode=":" glyph-name="colon" horiz-adv-x="324" d="M119 415T90 439T60 502Q60 541 89 565T162 590Q205 590 234 566T264 502Q264 463 235 439T162 415Q119 415 90 439ZM119 -10T90 14T60 77Q60 116 89 140T162 165Q205 165 234 141T264 77Q264 38 235
14T162 -10Q119 -10 90 14Z" />
<glyph unicode=";" glyph-name="semicolon" horiz-adv-x="327" d="M211 165T239 138T267 65Q267 9 232 -43T144 -114L110 -77L112 -72Q153 -49 154 -11Q113 -9 87 15T60 76Q60 115 89 140T163 165Q211 165 239 138ZM122 415T93 439T63 502Q63 541 92 565T165 590Q208
590 237 566T267 502Q267 463 238 439T165 415Q122 415 93 439Z" />
<glyph unicode="&lt;" glyph-name="less" horiz-adv-x="540" d="M485 154L495 -16L25 214V339L495 569L485 399L183 277L485 154Z" />
<glyph unicode="=" glyph-name="equal" horiz-adv-x="590" d="M45 495H545V360H45V495ZM45 255H545V120H45V255Z" />
<glyph unicode="&gt;" glyph-name="greater" horiz-adv-x="540" d="M515 339V214L45 -16L55 154L357 277L55 399L45 569L515 339Z" />
<glyph unicode="?" glyph-name="question" horiz-adv-x="441" d="M137 270T141 305T159 370T200 447Q222 483 230 504T239 542Q239 576 216 593T152 610Q126 610 96 604T48 589L38 594L62 704Q97 730 141 743T228 756Q275 756 315 737T378 683T401 603Q401 555
388 515T339 415Q304 359 291 315T277 210H137Q137 270 141 305ZM164 -10T135 14T105 77Q105 116 134 140T207 165Q250 165 279 141T309 77Q309 38 280 14T207 -10Q164 -10 135 14Z" />
<glyph unicode="@" glyph-name="at" horiz-adv-x="751" d="M524 379V260Q524 229 534 215T564 200Q593 200 606 230T620 331Q620 445 556 502T378 560Q248 560 185 484T121 279Q121 152 187 85T381 18Q468 18 532 34T624 79L633 75L608 -24Q586 -46 514 -65T379
-84Q201 -84 108 9T15 279Q15 461 109 561T379 662Q485 662 563 622T684 507T726 331Q726 213 684 158T560 103Q478 103 443 144Q423 125 395 114T336 103Q276 103 240 150T204 286Q204 377 240 426T340 475Q382 475 420 455V468H530L524 379ZM385 200T395 206T420
231V372Q405 376 378 376Q350 376 336 369T316 343T310 286Q310 237 323 219T366 200Q385 200 395 206Z" />
<glyph unicode="A" glyph-name="A" horiz-adv-x="648" d="M640 0H465L442 150V152L186 150L163 0H8L57 150L180 600L210 750H431L461 600L591 150L640 0ZM402 289L311 609L224 288L402 289Z" />
<glyph unicode="B" glyph-name="B" horiz-adv-x="642" d="M543 370T576 327T609 225Q609 159 574 108T478 29T340 0H60L70 150V605L60 750H341Q409 750 459 723T537 646T564 531Q564 486 544 451T485 393Q543 370 576 327ZM214 612V455H309Q364 455 389 473T414
531Q414 572 389 592T311 612H214ZM397 138T428 161T459 225Q459 269 430 293T342 317H214V138H340Q397 138 428 161Z" />
<glyph unicode="C" glyph-name="C" horiz-adv-x="569" d="M238 -16T170 24T70 151T38 378Q38 577 110 671T351 766Q415 766 454 754T538 707L516 580L496 571Q470 601 438 613T351 625Q290 625 255 601T204 523T188 378Q188 280 203 226T253 148T351 125Q415 125
457 139T527 183L548 175L518 58Q482 20 442 2T351 -16Q238 -16 170 24Z" />
<glyph unicode="D" glyph-name="D" horiz-adv-x="648" d="M469 750T539 658T610 378Q610 189 539 95T318 0H60L70 150V605L60 750H318Q469 750 539 658ZM371 138T402 161T446 237T460 378Q460 471 447 521T403 591T318 612H214V138H318Q371 138 402 161Z" />
<glyph unicode="E" glyph-name="E" horiz-adv-x="553" d="M525 138L503 0H60L70 150V605L60 750H515L493 612H214V455H468L446 317H214V138H525Z" />
<glyph unicode="F" glyph-name="F" horiz-adv-x="531" d="M214 612V455H465L443 317H214V150L224 0H60L70 150V605L60 750H515L493 612H214Z" />
<glyph unicode="G" glyph-name="G" horiz-adv-x="644" d="M38 577T110 671T351 766Q405 766 460 748T565 691L543 564L523 555Q496 587 450 606T351 625Q290 625 255 601T204 523T188 378Q188 281 201 227T244 149T329 125Q397 125 428 164T459 292H315V430H599V0H519L494
75Q468 35 419 10T319 -16Q221 -16 160 25T68 152T38 378Q38 577 110 671Z" />
<glyph unicode="H" glyph-name="H" horiz-adv-x="653" d="M583 151L593 1H429L439 151V317H214V150L224 0H60L70 150V605L60 750H224L214 605V455H439V606L429 751H593L583 606V151Z" />
<glyph unicode="I" glyph-name="I" horiz-adv-x="284" d="M70 150V605L60 750H224L214 605V150L224 0H60L70 150Z" />
<glyph unicode="J" glyph-name="J" horiz-adv-x="292" d="M232 750L222 605V0Q164 -146 72 -216L-51 -103L-43 -93Q-26 -93 10 -54T78 39V605L68 750H232Z" />
<glyph unicode="K" glyph-name="K" horiz-adv-x="636" d="M70 150V605L60 750H224L214 605V429L324 605L399 750H614L491 605L360 397L534 150L654 0H435L356 150L264 287L214 262V150L224 0H60L70 150Z" />
<glyph unicode="L" glyph-name="L" horiz-adv-x="530" d="M525 138L503 0H60L70 150V605L60 750H224L214 605V150L215 138H525Z" />
<glyph unicode="M" glyph-name="M" horiz-adv-x="877" d="M660 150V632L516 0H340L195 640V150L205 0H60L70 150V605L64 750H315L441 161L567 750H812L806 605V150L817 0H650L660 150Z" />
<glyph unicode="N" glyph-name="N" horiz-adv-x="672" d="M602 150L612 0H385L194 592V150L204 0H60L70 150V605L60 750H288L478 161V605L468 750H612L602 605V150Z" />
<glyph unicode="O" glyph-name="O" horiz-adv-x="660" d="M184 -16T111 84T38 378Q38 569 110 667T330 766Q477 766 549 668T622 378Q622 185 549 85T330 -16Q184 -16 111 84ZM384 125T414 148T458 226T472 378Q472 472 459 525T414 601T330 625Q277 625 246 602T202
525T188 378Q188 281 201 227T245 149T330 125Q384 125 414 148Z" />
<glyph unicode="P" glyph-name="P" horiz-adv-x="619" d="M456 750T526 682T597 486Q597 403 565 343T473 252T334 220H214V150L224 0H60L70 150V605L60 750H335Q456 750 526 682ZM353 358T386 369T433 408T447 486Q447 534 433 561T386 600T295 612H214V358H293Q353
358 386 369Z" />
<glyph unicode="Q" glyph-name="Q" horiz-adv-x="660" d="M622 107T481 22L548 -128H393L357 -15Q348 -16 330 -16Q184 -16 111 84T38 378Q38 569 110 667T330 766Q477 766 549 668T622 378Q622 107 481 22ZM188 290T199 237T236 158T304 127L249 247H398L424
158Q449 184 460 237T472 378Q472 472 459 525T414 601T330 625Q277 625 246 602T202 525T188 378Q188 290 199 237Z" />
<glyph unicode="R" glyph-name="R" horiz-adv-x="637" d="M632 0H425L358 150L315 220H214V150L224 0H60L70 150V605L60 750H321Q454 750 518 685T583 486Q583 405 550 345T457 253L521 150L632 0ZM214 358H279Q364 358 398 386T433 486Q433 536 419 563T373 601T281
612H214V358Z" />
<glyph unicode="S" glyph-name="S" horiz-adv-x="579" d="M219 -11T158 13T51 84L30 225L44 229Q100 181 157 156T267 130Q330 130 364 149T399 205Q399 239 367 260T250 307Q171 330 126 358T61 428T41 537Q41 642 109 701T290 760Q358 760 421 739T523 683L501
548L486 544Q465 577 414 598T303 619Q249 619 220 600T191 544Q191 506 219 486T323 444Q409 420 457 393T527 324T549 219Q549 110 477 50T286 -11Q219 -11 158 13Z" />
<glyph unicode="T" glyph-name="T" horiz-adv-x="550" d="M540 608L529 605L439 617H347V150L357 0H193L203 150V617H111L21 605L10 608L32 750H518L540 608Z" />
<glyph unicode="U" glyph-name="U" horiz-adv-x="632" d="M587 750L577 605V278Q577 126 514 55T316 -16Q182 -16 119 55T55 278V605L45 750H209L199 605V278Q199 195 225 160T316 125Q380 125 406 160T433 278V605L423 750H587Z" />
<glyph unicode="V" glyph-name="V" horiz-adv-x="622" d="M617 750L568 600L451 150L421 0H200L170 150L54 600L5 750H180L203 600L316 168L430 600L453 750H617Z" />
<glyph unicode="W" glyph-name="W" horiz-adv-x="889" d="M187 750L190 600L259 127L370 750H547L653 120L725 600L728 750H889L855 600L781 146L767 0H532L444 576L354 0H128L113 150L38 600L4 750H187Z" />
<glyph unicode="X" glyph-name="X" horiz-adv-x="644" d="M649 0H455L386 150L319 265L253 150L188 0H-5L96 150L224 381L103 605L6 750H200L264 605L320 505L375 605L435 750H628L532 605L415 385L547 150L649 0Z" />
<glyph unicode="Y" glyph-name="Y" horiz-adv-x="600" d="M373 259V151L383 1H219L229 151V255L72 605L-9 750H184L229 605L300 439L371 605L416 750H609L528 605L373 259Z" />
<glyph unicode="Z" glyph-name="Z" horiz-adv-x="586" d="M35 117L345 612H140L50 600L39 603L62 750H545L530 649L214 138H561L539 0H35V117Z" />
<glyph unicode="[" glyph-name="bracketleft" horiz-adv-x="338" d="M309 0L316 -11L285 -135H65V750H285L316 626L309 615H205V0H309Z" />
<glyph unicode="\" glyph-name="backslash" horiz-adv-x="396" d="M196 -80L178 70L47 655L5 800H176L193 655L324 70L368 -80H196Z" />
<glyph unicode="]" glyph-name="bracketright" horiz-adv-x="338" d="M273 -135H53L22 -11L29 0H133V615H29L22 626L53 750H273V-135Z" />
<glyph unicode="^" glyph-name="asciicircum" horiz-adv-x="535" d="M495 515T504 505T517 493L511 477H341L268 626L194 477H24L18 493Q22 494 31 504T51 533L183 750H352L484 533Q495 515 504 505Z" />
<glyph unicode="_" glyph-name="underscore" horiz-adv-x="640" d="M-10 -44H650V-179H-10V-44Z" />
<glyph unicode="`" glyph-name="grave" horiz-adv-x="379" d="M329 660H208L60 814H233L329 660Z" />
<glyph unicode="a" glyph-name="a" horiz-adv-x="573" d="M33 224T60 270T133 344T232 371Q324 371 375 344V397Q375 435 345 456T259 477Q200 477 155 458T85 401L74 403L92 551Q126 581 176 597T279 614Q387 614 451 563T515 424V149L525 0H378L375 55Q355 23
313 4T219 -16Q134 -16 84 33T33 167Q33 224 60 270ZM177 142T194 124T246 105Q283 105 316 119T375 161V229Q319 256 249 256Q212 256 195 236T177 176Q177 142 194 124Z" />
<glyph unicode="b" glyph-name="b" horiz-adv-x="590" d="M446 612T498 536T551 301Q551 151 495 72T333 -8Q299 -8 262 9T205 54L202 0H55L65 149V655L55 800H215L205 655V578Q230 594 266 603T343 612Q446 612 498 536ZM350 127T370 142T398 195T407 301Q407
373 398 409T367 460T303 474Q238 474 205 461V156Q222 144 253 136T313 127Q350 127 370 142Z" />
<glyph unicode="c" glyph-name="c" horiz-adv-x="489" d="M159 -16T99 62T39 295Q39 446 101 529T287 612Q355 612 392 602T465 564L443 439L427 432Q404 455 377 464T302 474Q237 474 210 433T183 295Q183 226 194 190T233 139T317 124Q369 124 400 134T455 167L472
159L441 36Q402 5 372 -5T287 -16Q159 -16 99 62Z" />
<glyph unicode="d" glyph-name="d" horiz-adv-x="590" d="M525 149L535 0H388L385 54Q366 27 329 10T257 -8Q152 -8 96 71T39 301Q39 460 91 536T247 612Q288 612 324 603T385 578V655L375 800H535L525 655V149ZM385 461Q352 474 287 474Q245 474 223 460T192
410T183 301Q183 232 191 195T220 143T277 127Q305 127 336 135T385 156V461Z" />
<glyph unicode="e" glyph-name="e" horiz-adv-x="582" d="M163 -12T101 67T39 301Q39 452 104 534T297 616Q422 616 482 553T553 354L526 249H185Q189 200 204 174T247 138T327 128Q394 128 446 140T518 171L535 162L504 40Q466 11 418 0T297 -12Q163 -12 101
67ZM411 354Q411 417 384 447T301 478Q242 478 216 451T184 354H411Z" />
<glyph unicode="f" glyph-name="f" horiz-adv-x="422" d="M40 560L104 600Q104 713 142 764T265 816Q320 816 357 806T417 772L401 672L384 662Q371 674 355 679T306 684Q244 684 244 615V600H402V465H244V150L254 0H94L104 150V465H40V560Z" />
<glyph unicode="g" glyph-name="g" horiz-adv-x="590" d="M535 600L525 451V91Q525 -58 438 -135T196 -212L133 -104L140 -96Q206 -96 262 -78T351 -24T385 57V68Q368 33 328 13T247 -8Q149 -8 94 72T39 301Q39 460 91 536T247 612Q292 612 330 602T393 572L398
600H535ZM385 461Q352 474 287 474Q245 474 223 460T192 410T183 301Q183 232 191 195T220 143T277 127Q305 127 336 135T385 156V461Z" />
<glyph unicode="h" glyph-name="h" horiz-adv-x="578" d="M380 150V407Q380 440 362 459T312 479Q249 479 205 411V150L215 0H55L65 150V655L55 800H215L205 655V527Q258 607 369 607Q439 607 479 563T520 434V150L530 0H370L380 150Z" />
<glyph unicode="i" glyph-name="i" horiz-adv-x="268" d="M96 655T70 676T43 732Q43 767 69 788T134 810Q172 810 198 789T225 732Q225 698 199 677T134 655Q96 655 70 676ZM63 150V455L53 600H213L203 455V150L213 0H53L63 150Z" />
<glyph unicode="j" glyph-name="j" horiz-adv-x="269" d="M97 655T71 676T44 732Q44 767 70 788T135 810Q173 810 199 789T226 732Q226 698 200 677T135 655Q97 655 71 676ZM55 600H215L205 455V0Q147 -146 55 -216L-64 -103L-56 -93Q-39 -93 -3 -54T65 39V455L55 600Z" />
<glyph unicode="k" glyph-name="k" horiz-adv-x="578" d="M583 0H400L349 145L287 274L205 172V150L215 0H55L65 150V655L55 800H215L205 655V343L289 455L371 600H564L434 455L375 382L496 145L583 0Z" />
<glyph unicode="l" glyph-name="l" horiz-adv-x="270" d="M65 150V655L55 800H215L205 655V150L215 0H55L65 150Z" />
<glyph unicode="m" glyph-name="m" horiz-adv-x="853" d="M655 150V407Q655 440 637 459T587 479Q537 479 500 437V434V150L510 0H350L360 150V407Q360 440 342 459T292 479Q242 479 205 437V150L215 0H55L65 150V455L55 600H185L201 540Q256 607 349 607Q397
607 432 586T484 524Q540 607 644 607Q714 607 754 563T795 434V150L805 0H645L655 150Z" />
<glyph unicode="n" glyph-name="n" horiz-adv-x="578" d="M380 150V407Q380 440 362 459T312 479Q249 479 205 411V150L215 0H55L65 150V455L55 600H185L205 527Q258 607 369 607Q439 607 479 563T520 434V150L530 0H370L380 150Z" />
<glyph unicode="o" glyph-name="o" horiz-adv-x="594" d="M162 -16T101 64T39 301Q39 458 100 537T297 616Q432 616 493 537T555 301Q555 144 494 64T297 -16Q162 -16 101 64ZM344 122T368 137T401 190T411 300Q411 372 402 409T368 462T297 478Q250 478 226 463T193
410T183 300Q183 228 192 191T226 138T297 122Q344 122 368 137Z" />
<glyph unicode="p" glyph-name="p" horiz-adv-x="590" d="M446 612T498 536T551 301Q551 151 495 72T333 -8Q299 -8 261 10T205 55V-50L215 -200H55L65 -50V451L55 600H192L197 572Q221 591 259 601T343 612Q446 612 498 536ZM350 127T370 142T398 195T407 301Q407
373 398 409T367 460T303 474Q238 474 205 461V156Q222 144 253 136T313 127Q350 127 370 142Z" />
<glyph unicode="q" glyph-name="q" horiz-adv-x="590" d="M525 -50L535 -200H375L385 -50V55Q367 28 329 10T257 -8Q152 -8 96 71T39 301Q39 460 91 536T247 612Q292 612 330 602T393 572L398 600H535L525 451V-50ZM385 461Q352 474 287 474Q245 474 223 460T192
410T183 301Q183 232 191 195T220 143T277 127Q305 127 336 135T385 156V461Z" />
<glyph unicode="r" glyph-name="r" horiz-adv-x="434" d="M399 607T432 593L409 470L396 461Q365 481 307 481Q275 481 251 468T205 426V150L215 0H55L65 150V455L55 600H185L202 537Q253 607 338 607Q399 607 432 593Z" />
<glyph unicode="s" glyph-name="s" horiz-adv-x="521" d="M195 -10T152 8T64 72L45 198L59 202Q97 169 146 150T244 131Q293 131 312 140T332 174Q332 196 308 211T222 244Q160 262 125 284T74 339T58 424Q58 515 112 564T267 613Q328 613 374 598T458 549L436
423L421 419Q405 445 364 460T280 475Q202 475 202 431Q202 406 223 392T307 361Q395 337 435 295T476 180Q476 88 420 39T263 -10Q195 -10 152 8Z" />
<glyph unicode="t" glyph-name="t" horiz-adv-x="441" d="M35 560L99 600L129 725H239V600H397V465H239V201Q239 166 254 147T300 128Q332 128 358 140T402 173L423 163L392 40Q351 9 325 -1T260 -12Q202 -12 167 11T116 87T99 231V465H35V560Z" />
<glyph unicode="u" glyph-name="u" horiz-adv-x="578" d="M513 149L523 0H376L372 71Q316 -12 209 -12Q138 -12 98 34T58 166V450L48 600H208L198 450V193Q198 158 217 137T266 116Q325 116 373 189V450L363 600H523L513 450V149Z" />
<glyph unicode="v" glyph-name="v" horiz-adv-x="549" d="M549 600L499 455L382 0H167L51 455L0 600H176L198 455L274 104L350 455L373 600H549Z" />
<glyph unicode="w" glyph-name="w" horiz-adv-x="874" d="M874 600L824 455L734 0H510L437 434L364 0H140L51 455L0 600H176L253 97L324 455L347 600H527L549 455L621 96L698 600H874Z" />
<glyph unicode="x" glyph-name="x" horiz-adv-x="576" d="M581 0H399L323 150L287 206L251 150L178 0H-5L101 150L193 300L103 455L3 600H186L254 455L287 398L320 455L388 600H571L473 455L382 300L475 150L581 0Z" />
<glyph unicode="y" glyph-name="y" horiz-adv-x="549" d="M549 600L499 455L382 0Q325 -144 220 -216L101 -103L109 -93Q140 -85 179 -56T231 0H167L51 455L0 600H176L198 455L274 104L350 455L373 600H549Z" />
<glyph unicode="z" glyph-name="z" horiz-adv-x="525" d="M507 123L476 0H37V82L296 465H37L30 477L61 600H486V518L241 135H500L507 123Z" />
<glyph unicode="{" glyph-name="braceleft" horiz-adv-x="418" d="M376 -1L383 -12L352 -136H321Q114 -136 114 20Q114 60 132 111Q146 151 146 179Q146 231 78 231H55V383H78Q146 383 146 435Q146 463 132 503Q114 554 114 594Q114 750 321 750H352L383 626L376
615H329Q295 615 273 597T250 550Q250 508 271 462Q281 440 285 423T290 386Q290 362 280 340T252 307Q269 296 279 274T290 228Q290 209 286 192T271 152Q250 106 250 64Q250 35 272 17T329 -1H376Z" />
<glyph unicode="|" glyph-name="bar" horiz-adv-x="260" d="M75 -50V655L65 800H195L185 655V-50L195 -200H65L75 -50Z" />
<glyph unicode="}" glyph-name="braceright" horiz-adv-x="418" d="M363 383V231H340Q272 231 272 179Q272 151 286 111Q304 60 304 20Q304 -136 97 -136H66L35 -12L42 -1H89Q123 -1 145 17T168 64Q168 106 147 152Q137 175 133 192T128 228Q128 252 138 274T166
307Q149 318 139 340T128 386Q128 406 132 422T147 462Q168 508 168 550Q168 579 146 597T89 615H42L35 626L66 750H97Q304 750 304 594Q304 554 286 503Q272 463 272 435Q272 383 340 383H363Z" />
<glyph unicode="~" glyph-name="asciitilde" horiz-adv-x="489" d="M15 272Q52 338 94 367T193 396Q213 396 234 389T282 370Q305 360 321 355T351 349Q376 349 392 356T436 386H447L474 340Q437 274 395 245T296 216Q276 216 255 223T207 242Q184 252 168 257T138
263Q113 263 97 256T53 226H42L15 272Z" />
<glyph unicode="&#xa0;" glyph-name="uni00A0" horiz-adv-x="200" />
<glyph unicode="&#xa1;" glyph-name="exclamdown" horiz-adv-x="334" d="M210 609T239 585T269 522Q269 483 240 459T167 434Q124 434 95 458T65 522Q65 561 94 585T167 609Q210 609 239 585ZM242 -1L257 -151H77L92 -1L110 389H224L242 -1Z" />
<glyph unicode="&#xa2;" glyph-name="cent" horiz-adv-x="498" d="M440 97Q410 74 388 63T337 48L346 -93H216L226 50Q130 68 84 145T38 356Q38 487 85 567T226 667V671L216 816H346L336 671Q379 668 407 658T464 625L442 500L426 493Q403 516 376 525T301 535Q236
535 209 494T182 356Q182 287 193 251T232 200T316 185Q368 185 399 195T454 228L471 220L440 97Z" />
<glyph unicode="&#xa3;" glyph-name="sterling" horiz-adv-x="604" d="M599 181L566 52Q559 23 529 12T434 0H45V82L76 122Q113 169 125 201T138 286H68V424H114L108 441Q87 501 87 553Q87 616 115 664T196 739T318 766Q407 766 463 718T535 578L409 564L396 572Q387
598 367 611T318 625Q284 625 264 603T243 543Q243 514 256 478Q262 463 273 424H480V286H292Q291 242 278 203T242 135H474Q503 135 535 149T590 185L599 181Z" />
<glyph unicode="&#xa4;" glyph-name="currency" horiz-adv-x="700" d="M578 236L688 140L582 34L487 143Q428 111 350 111Q272 111 215 145L211 141L116 32L10 138L119 233L124 238Q92 297 92 372Q92 447 124 506L122 508L12 604L118 710L214 600L215 599Q272
633 350 633Q428 633 485 599L489 603L584 712L690 606L581 511L576 506Q608 447 608 372Q608 295 577 237L578 236ZM405 249T434 281T464 372Q464 431 435 463T350 495Q295 495 266 463T236 372Q236 313 265 281T350 249Q405 249 434 281Z" />
<glyph unicode="&#xa5;" glyph-name="yen" horiz-adv-x="658" d="M485 450H586V312H402V241H586V103H404L412 -49H248L256 103H72V241H258V312H72V450H174L101 621L20 766H213L258 621L327 450H331L400 621L445 766H638L557 621L485 450Z" />
<glyph unicode="&#xa6;" glyph-name="brokenbar" horiz-adv-x="246" d="M68 655L58 800H188L178 655V405H68V655ZM68 -50V200H178V-50L188 -200H58L68 -50Z" />
<glyph unicode="&#xa7;" glyph-name="section" horiz-adv-x="529" d="M40 398T104 447Q76 469 64 500T51 577Q51 668 105 717T260 766Q321 766 367 751T451 702L429 576L414 572Q398 598 357 613T273 628Q195 628 195 584Q195 559 216 545T300 514Q392 489 440
446T489 333Q489 250 425 202Q478 156 478 76Q478 -16 422 -65T265 -114Q192 -114 150 -95T66 -32L47 94L61 98Q99 65 148 46T246 27Q295 27 314 36T334 70Q334 92 310 107T224 140Q128 168 84 207T40 320Q40 398 104 447ZM184 313T207 296T293 261Q345 278 345
316Q345 339 321 355T231 392Q209 384 197 370T184 338Q184 313 207 296Z" />
<glyph unicode="&#xa8;" glyph-name="dieresis" horiz-adv-x="522" d="M109 660T85 680T60 732Q60 765 84 785T145 805Q181 805 205 785T230 732Q230 700 206 680T145 660Q109 660 85 680ZM341 660T317 680T292 732Q292 765 316 785T377 805Q413 805 437 785T462
732Q462 700 438 680T377 660Q341 660 317 680Z" />
<glyph unicode="&#xa9;" glyph-name="copyright" horiz-adv-x="808" d="M293 -16T205 35T68 175T18 375Q18 487 67 576T205 715T404 766Q515 766 603 716T740 576T790 375Q790 264 741 175T603 35T404 -16Q293 -16 205 35ZM487 86T551 123T652 225T688 375Q688
460 653 525T553 627T404 664Q320 664 256 628T156 526T120 375Q120 291 156 226T256 123T404 86Q487 86 551 123ZM323 161T283 214T242 372Q242 474 284 530T410 587Q456 587 481 580T531 554L516 470L505 465Q489 480 471 486T420 493Q376 493 358 465T339 372Q339
325 346 301T373 267T431 256Q467 256 490 263T531 287L537 283L515 196Q483 174 465 168T410 161Q323 161 283 214Z" />
<glyph unicode="&#xaa;" glyph-name="ordfeminine" horiz-adv-x="461" d="M284 412L282 444Q261 424 227 410T157 396Q96 396 63 433T30 539Q30 614 77 661T201 708Q251 708 281 693V710Q281 730 263 743T218 757Q175 757 139 748T61 716L50 718L65 849Q157 894
238 894Q319 894 370 848T421 723V561L431 412H284ZM174 517T212 517Q228 517 244 523T281 547V585Q251 593 215 593Q174 593 174 553Q174 517 212 517Z" />
<glyph unicode="&#xab;" glyph-name="guillemotleft" horiz-adv-x="880" d="M430 67T443 56T459 43L453 27H253L28 300L253 573H453L459 557Q456 556 443 545T416 517L224 300L416 83Q430 67 443 56ZM806 67T819 56T835 43L829 27H629L404 300L629 573H829L835
557Q832 556 819 545T792 517L600 300L792 83Q806 67 819 56Z" />
<glyph unicode="&#xac;" glyph-name="logicalnot" horiz-adv-x="580" d="M535 407V75H395V272H35V407H535Z" />
<glyph unicode="&#xad;" glyph-name="uni00AD" horiz-adv-x="495" d="M35 375H460V240H35V375Z" />
<glyph unicode="&#xae;" glyph-name="registered" horiz-adv-x="457" d="M283 924T326 900T393 832T417 733Q417 679 393 635T326 567T229 542Q175 542 132 566T65 635T40 733Q40 788 64 831T132 899T229 924Q283 924 326 900ZM287 599T324 636T361 733Q361 792
324 829T229 867Q170 867 134 830T97 733Q97 674 133 637T229 599Q287 599 324 636ZM290 673L319 632H254L235 673L223 691H207V673L210 632H155L158 673V794L155 834H236Q307 834 307 762Q307 718 272 700L290 673ZM207 738H224Q256 738 256 762Q256 787 225 787H207V738Z"
/>
<glyph unicode="&#xaf;" glyph-name="overscore" horiz-adv-x="453" d="M393 780V686H60V780H393Z" />
<glyph unicode="&#xb0;" glyph-name="degree" horiz-adv-x="344" d="M106 609T63 648T20 751Q20 816 63 855T172 895Q239 895 281 856T324 751Q324 687 281 648T172 609Q106 609 63 648ZM194 704T206 716T219 751Q219 774 206 786T172 799Q151 799 138 787T125
751Q125 728 138 716T172 704Q194 704 206 716Z" />
<glyph unicode="&#xb1;" glyph-name="plusminus" horiz-adv-x="590" d="M545 470V335H365V233H225V335H45V470H225V572H365V470H545ZM45 190H545V55H45V190Z" />
<glyph unicode="&#xb2;" glyph-name="uni00B2" horiz-adv-x="442" d="M420 593L387 464Q380 436 350 424T255 412H45V481L165 603Q206 645 218 663T230 703Q230 726 216 739T176 752Q115 752 61 692L50 694L68 842Q92 863 131 876T214 889Q297 889 337 855T377
752Q377 704 352 659T275 567L253 547H295Q360 547 411 597L420 593Z" />
<glyph unicode="&#xb3;" glyph-name="uni00B3" horiz-adv-x="427" d="M348 672T370 639T392 545Q392 481 347 444T220 406Q163 406 129 414T60 443L45 562L56 564Q66 553 93 548T176 543Q214 543 229 551T245 577Q245 598 219 608T125 619H116V667L204 753H59L52
764L83 887H371V805L291 691Q348 672 370 639Z" />
<glyph unicode="&#xb4;" glyph-name="acute" horiz-adv-x="389" d="M329 814L181 660H60L156 814H329Z" />
<glyph unicode="&#xb5;" glyph-name="uni00B5" horiz-adv-x="605" d="M575 135L553 0H502Q462 0 429 23T387 80Q352 32 311 10T216 -12Q201 -12 194 -11V-50L199 -200H60L65 -50V450L55 600H215L205 450V193Q205 158 224 137T273 116Q332 116 380 189V450L370
600H530L520 450V189Q520 168 529 155T556 139L575 135Z" />
<glyph unicode="&#xb6;" glyph-name="paragraph" horiz-adv-x="556" d="M493 -50L503 -200H403V648H331V-200H231L241 -50V295H207Q120 295 73 354T26 523Q26 633 73 691T207 750H503L493 605V-50Z" />
<glyph unicode="&#xb7;" glyph-name="middot" horiz-adv-x="280" d="M97 262T68 286T38 349Q38 388 67 412T140 437Q183 437 212 413T242 349Q242 310 213 286T140 262Q97 262 68 286Z" />
<glyph unicode="&#xb8;" glyph-name="cedilla" horiz-adv-x="367" d="M268 -31T287 -54T307 -113Q307 -162 275 -189T189 -216Q118 -216 83 -185L65 -96L72 -92Q93 -112 108 -120T142 -128Q158 -128 168 -120T178 -96Q178 -78 162 -69T119 -59L139 34H248L229
-18Q268 -31 287 -54Z" />
<glyph unicode="&#xb9;" glyph-name="uni00B9" horiz-adv-x="357" d="M57 771L177 887H287V562L297 412H137L147 562V685L55 624L40 631L57 771Z" />
<glyph unicode="&#xba;" glyph-name="ordmasculine" horiz-adv-x="476" d="M134 396T80 460T25 648Q25 771 79 834T238 898Q342 898 396 835T451 648Q451 525 397 461T238 396Q134 396 80 460ZM275 534T291 559T307 647Q307 709 291 734T238 760Q201 760 185 735T169
647Q169 585 185 560T238 534Q275 534 291 559Z" />
<glyph unicode="&#xbb;" glyph-name="guillemotright" horiz-adv-x="880" d="M476 300L251 27H51L45 43Q48 44 61 55T88 83L280 300L88 517Q74 533 61 544T45 557L51 573H251L476 300ZM852 300L627 27H427L421 43Q424 44 437 55T464 83L656 300L464 517Q450 533
437 544T421 557L427 573H627L852 300Z" />
<glyph unicode="&#xbc;" glyph-name="onequarter" horiz-adv-x="951" d="M57 634L177 750H287V425L297 275H137L147 425V548L55 487L40 494L57 634ZM254 150L563 605L640 750H819L703 605L394 150L309 0H139L254 150ZM891 65H854L858 0H698L702 65H518V155L738
475H848V170H891V65ZM708 279L640 170H708V279Z" />
<glyph unicode="&#xbd;" glyph-name="onehalf" horiz-adv-x="1042" d="M57 634L177 750H287V425L297 275H137L147 425V548L55 487L40 494L57 634ZM255 150L564 605L641 750H820L704 605L395 150L310 0H140L255 150ZM982 181L949 52Q942 24 912 12T817 0H607V69L727
191Q768 233 780 251T792 291Q792 314 778 327T738 340Q677 340 623 280L612 282L630 430Q654 451 693 464T776 477Q859 477 899 443T939 340Q939 292 914 247T837 155L815 135H857Q922 135 973 185L982 181Z" />
<glyph unicode="&#xbe;" glyph-name="threequarters" horiz-adv-x="987" d="M348 535T370 502T392 408Q392 344 347 307T220 269Q163 269 129 277T60 306L45 425L56 427Q66 416 93 411T176 406Q214 406 229 414T245 440Q245 461 219 471T125 482H116V530L204 616H59L52
627L83 750H371V668L291 554Q348 535 370 502ZM315 150L624 605L701 750H880L764 605L455 150L370 0H200L315 150ZM952 65H915L919 0H759L763 65H579V155L799 475H909V170H952V65ZM769 279L701 170H769V279Z" />
<glyph unicode="&#xbf;" glyph-name="questiondown" horiz-adv-x="441" d="M277 605T306 581T336 518Q336 479 307 455T234 430Q191 430 162 454T132 518Q132 557 161 581T234 605Q277 605 306 581ZM304 325T300 290T282 225T241 148Q219 112 211 91T202 53Q202
19 225 2T289 -15Q316 -15 346 -9T393 6L403 1L379 -109Q344 -135 300 -148T213 -161Q166 -161 126 -142T63 -88T40 -8Q40 40 53 80T102 180Q137 236 150 280T164 385H304Q304 325 300 290Z" />
<glyph unicode="&#xc0;" glyph-name="Agrave" horiz-adv-x="648" d="M640 0H465L442 150V152L186 150L163 0H8L57 150L180 600L210 750H431L461 600L591 150L640 0ZM402 289L311 609L224 288L402 289ZM412 810H291L143 964H316L412 810Z" />
<glyph unicode="&#xc1;" glyph-name="Aacute" horiz-adv-x="648" d="M640 0H465L442 150V152L186 150L163 0H8L57 150L180 600L210 750H431L461 600L591 150L640 0ZM402 289L311 609L224 288L402 289ZM493 964L345 810H224L320 964H493Z" />
<glyph unicode="&#xc2;" glyph-name="Acircumflex" horiz-adv-x="648" d="M640 0H465L442 150V152L186 150L163 0H8L57 150L180 600L210 750H431L461 600L591 150L640 0ZM402 289L311 609L224 288L402 289ZM367 808L318 909L269 808H116L234 964H402L520 808H367Z" />
<glyph unicode="&#xc3;" glyph-name="Atilde" horiz-adv-x="648" d="M640 0H465L442 150V152L186 150L163 0H8L57 150L180 600L210 750H431L461 600L591 150L640 0ZM402 289L311 609L224 288L402 289ZM140 879T169 911T255 944Q275 944 291 940T328 927Q341 922
354 918T378 914Q397 914 405 920T413 941H495Q495 881 466 849T380 816Q360 816 344 820T307 833Q294 838 281 842T257 846Q238 846 230 840T222 819H140Q140 879 169 911Z" />
<glyph unicode="&#xc4;" glyph-name="Adieresis" horiz-adv-x="648" d="M640 0H465L442 150V152L186 150L163 0H8L57 150L180 600L210 750H431L461 600L591 150L640 0ZM402 289L311 609L224 288L402 289ZM166 810T142 830T117 882Q117 915 141 935T202 955Q238
955 262 935T287 882Q287 850 263 830T202 810Q166 810 142 830ZM398 810T374 830T349 882Q349 915 373 935T434 955Q470 955 494 935T519 882Q519 850 495 830T434 810Q398 810 374 830Z" />
<glyph unicode="&#xc5;" glyph-name="Aring" horiz-adv-x="648" d="M640 0H465L442 150V152L186 150L163 0H8L57 150L180 600L210 750H431L461 600L591 150L640 0ZM402 289L311 609L224 288L402 289ZM266 790T233 820T199 901Q199 952 232 983T318 1014Q370 1014
403 983T437 901Q437 851 404 821T318 790Q266 790 233 820ZM335 864T345 873T355 901Q355 919 345 929T318 939Q302 939 292 929T281 901Q281 884 291 874T318 864Q335 864 345 873Z" />
<glyph unicode="&#xc6;" glyph-name="AE" horiz-adv-x="882" d="M854 138L832 0H399V152L168 150L114 0H-69L19 150L242 605L303 750H844L822 612H543V455H797L775 317H543V138H854ZM399 290V621L236 289L399 290Z" />
<glyph unicode="&#xc7;" glyph-name="Ccedilla" horiz-adv-x="569" d="M548 175L518 58Q484 22 446 4T361 -16V-18Q400 -31 419 -54T439 -113Q439 -162 407 -189T321 -216Q250 -216 215 -185L197 -96L204 -92Q225 -112 240 -120T274 -128Q290 -128 300 -120T310
-96Q310 -78 294 -69T251 -59L262 -9Q143 13 91 105T38 378Q38 577 110 671T351 766Q415 766 454 754T538 707L516 580L496 571Q470 601 438 613T351 625Q290 625 255 601T204 523T188 378Q188 280 203 226T253 148T351 125Q415 125 457 139T527 183L548 175Z"
/>
<glyph unicode="&#xc8;" glyph-name="Egrave" horiz-adv-x="553" d="M525 138L503 0H60L70 150V605L60 750H515L493 612H214V455H468L446 317H214V138H525ZM374 810H253L105 964H278L374 810Z" />
<glyph unicode="&#xc9;" glyph-name="Eacute" horiz-adv-x="553" d="M525 138L503 0H60L70 150V605L60 750H515L493 612H214V455H468L446 317H214V138H525ZM455 964L307 810H186L282 964H455Z" />
<glyph unicode="&#xca;" glyph-name="Ecircumflex" horiz-adv-x="553" d="M525 138L503 0H60L70 150V605L60 750H515L493 612H214V455H468L446 317H214V138H525ZM329 808L280 909L231 808H78L196 964H364L482 808H329Z" />
<glyph unicode="&#xcb;" glyph-name="Edieresis" horiz-adv-x="553" d="M525 138L503 0H60L70 150V605L60 750H515L493 612H214V455H468L446 317H214V138H525ZM128 810T104 830T79 882Q79 915 103 935T164 955Q200 955 224 935T249 882Q249 850 225 830T164 810Q128
810 104 830ZM360 810T336 830T311 882Q311 915 335 935T396 955Q432 955 456 935T481 882Q481 850 457 830T396 810Q360 810 336 830Z" />
<glyph unicode="&#xcc;" glyph-name="Igrave" horiz-adv-x="284" d="M70 150V605L60 750H224L214 605V150L224 0H60L70 150ZM236 810H115L-33 964H140L236 810Z" />
<glyph unicode="&#xcd;" glyph-name="Iacute" horiz-adv-x="284" d="M70 150V605L60 750H224L214 605V150L224 0H60L70 150ZM317 964L169 810H48L144 964H317Z" />
<glyph unicode="&#xce;" glyph-name="Icircumflex" horiz-adv-x="284" d="M70 150V605L60 750H224L214 605V150L224 0H60L70 150ZM191 808L142 909L93 808H-60L58 964H226L344 808H191Z" />
<glyph unicode="&#xcf;" glyph-name="Idieresis" horiz-adv-x="284" d="M70 150V605L60 750H224L214 605V150L224 0H60L70 150ZM-10 810T-34 830T-59 882Q-59 915 -35 935T26 955Q62 955 86 935T111 882Q111 850 87 830T26 810Q-10 810 -34 830ZM222 810T198 830T173
882Q173 915 197 935T258 955Q294 955 318 935T343 882Q343 850 319 830T258 810Q222 810 198 830Z" />
<glyph unicode="&#xd0;" glyph-name="Eth" horiz-adv-x="648" d="M469 750T539 658T610 378Q610 189 539 95T318 0H60L70 150V328H3V432H70V605L60 750H318Q469 750 539 658ZM371 138T402 161T446 237T460 378Q460 471 447 521T403 591T318 612H214V432H356V328H214V138H318Q371
138 402 161Z" />
<glyph unicode="&#xd1;" glyph-name="Ntilde" horiz-adv-x="672" d="M602 150L612 0H385L194 592V150L204 0H60L70 150V605L60 750H288L478 161V605L468 750H612L602 605V150ZM158 879T187 911T273 944Q293 944 309 940T346 927Q359 922 372 918T396 914Q415 914
423 920T431 941H513Q513 881 484 849T398 816Q378 816 362 820T325 833Q312 838 299 842T275 846Q256 846 248 840T240 819H158Q158 879 187 911Z" />
<glyph unicode="&#xd2;" glyph-name="Ograve" horiz-adv-x="660" d="M184 -16T111 84T38 378Q38 569 110 667T330 766Q477 766 549 668T622 378Q622 185 549 85T330 -16Q184 -16 111 84ZM384 125T414 148T458 226T472 378Q472 472 459 525T414 601T330 625Q277
625 246 602T202 525T188 378Q188 281 201 227T245 149T330 125Q384 125 414 148ZM424 810H303L155 964H328L424 810Z" />
<glyph unicode="&#xd3;" glyph-name="Oacute" horiz-adv-x="660" d="M184 -16T111 84T38 378Q38 569 110 667T330 766Q477 766 549 668T622 378Q622 185 549 85T330 -16Q184 -16 111 84ZM384 125T414 148T458 226T472 378Q472 472 459 525T414 601T330 625Q277
625 246 602T202 525T188 378Q188 281 201 227T245 149T330 125Q384 125 414 148ZM505 964L357 810H236L332 964H505Z" />
<glyph unicode="&#xd4;" glyph-name="Ocircumflex" horiz-adv-x="660" d="M184 -16T111 84T38 378Q38 569 110 667T330 766Q477 766 549 668T622 378Q622 185 549 85T330 -16Q184 -16 111 84ZM384 125T414 148T458 226T472 378Q472 472 459 525T414 601T330 625Q277
625 246 602T202 525T188 378Q188 281 201 227T245 149T330 125Q384 125 414 148ZM379 808L330 909L281 808H128L246 964H414L532 808H379Z" />
<glyph unicode="&#xd5;" glyph-name="Otilde" horiz-adv-x="660" d="M184 -16T111 84T38 378Q38 569 110 667T330 766Q477 766 549 668T622 378Q622 185 549 85T330 -16Q184 -16 111 84ZM384 125T414 148T458 226T472 378Q472 472 459 525T414 601T330 625Q277
625 246 602T202 525T188 378Q188 281 201 227T245 149T330 125Q384 125 414 148ZM152 879T181 911T267 944Q287 944 303 940T340 927Q353 922 366 918T390 914Q409 914 417 920T425 941H507Q507 881 478 849T392 816Q372 816 356 820T319 833Q306 838 293 842T269
846Q250 846 242 840T234 819H152Q152 879 181 911Z" />
<glyph unicode="&#xd6;" glyph-name="Odieresis" horiz-adv-x="660" d="M184 -16T111 84T38 378Q38 569 110 667T330 766Q477 766 549 668T622 378Q622 185 549 85T330 -16Q184 -16 111 84ZM384 125T414 148T458 226T472 378Q472 472 459 525T414 601T330 625Q277
625 246 602T202 525T188 378Q188 281 201 227T245 149T330 125Q384 125 414 148ZM178 810T154 830T129 882Q129 915 153 935T214 955Q250 955 274 935T299 882Q299 850 275 830T214 810Q178 810 154 830ZM410 810T386 830T361 882Q361 915 385 935T446 955Q482
955 506 935T531 882Q531 850 507 830T446 810Q410 810 386 830Z" />
<glyph unicode="&#xd7;" glyph-name="multiply" horiz-adv-x="544" d="M367 303L509 161L408 60L272 212L136 60L35 161L177 303L35 445L136 546L272 394L408 546L509 445L367 303Z" />
<glyph unicode="&#xd8;" glyph-name="Oslash" horiz-adv-x="660" d="M622 563T622 378Q622 185 549 85T330 -16Q240 -16 175 24L161 0H51L106 92Q38 190 38 378Q38 569 110 667T330 766Q423 766 484 727L498 750H608L555 660Q622 563 622 378ZM188 296T198 246L411
604Q382 625 330 625Q277 625 246 602T202 525T188 378Q188 296 198 246ZM384 125T414 148T458 226T472 378Q472 455 463 506L248 147Q277 125 330 125Q384 125 414 148Z" />
<glyph unicode="&#xd9;" glyph-name="Ugrave" horiz-adv-x="632" d="M587 750L577 605V278Q577 126 514 55T316 -16Q182 -16 119 55T55 278V605L45 750H209L199 605V278Q199 195 225 160T316 125Q380 125 406 160T433 278V605L423 750H587ZM410 810H289L141 964H314L410
810Z" />
<glyph unicode="&#xda;" glyph-name="Uacute" horiz-adv-x="632" d="M587 750L577 605V278Q577 126 514 55T316 -16Q182 -16 119 55T55 278V605L45 750H209L199 605V278Q199 195 225 160T316 125Q380 125 406 160T433 278V605L423 750H587ZM491 964L343 810H222L318
964H491Z" />
<glyph unicode="&#xdb;" glyph-name="Ucircumflex" horiz-adv-x="632" d="M587 750L577 605V278Q577 126 514 55T316 -16Q182 -16 119 55T55 278V605L45 750H209L199 605V278Q199 195 225 160T316 125Q380 125 406 160T433 278V605L423 750H587ZM365 808L316 909L267
808H114L232 964H400L518 808H365Z" />
<glyph unicode="&#xdc;" glyph-name="Udieresis" horiz-adv-x="632" d="M587 750L577 605V278Q577 126 514 55T316 -16Q182 -16 119 55T55 278V605L45 750H209L199 605V278Q199 195 225 160T316 125Q380 125 406 160T433 278V605L423 750H587ZM164 810T140 830T115
882Q115 915 139 935T200 955Q236 955 260 935T285 882Q285 850 261 830T200 810Q164 810 140 830ZM396 810T372 830T347 882Q347 915 371 935T432 955Q468 955 492 935T517 882Q517 850 493 830T432 810Q396 810 372 830Z" />
<glyph unicode="&#xdd;" glyph-name="Yacute" horiz-adv-x="600" d="M373 259V151L383 1H219L229 151V255L72 605L-9 750H184L229 605L300 439L371 605L416 750H609L528 605L373 259ZM475 964L327 810H206L302 964H475Z" />
<glyph unicode="&#xde;" glyph-name="Thorn" horiz-adv-x="617" d="M441 600T491 572T569 493T597 376Q597 313 569 261T491 180T377 150H214L224 0H60L70 150V605L60 750H224L214 605V600H378Q441 600 491 572ZM386 288T416 309T447 376Q447 420 417 441T325
462H214V288H323Q386 288 416 309Z" />
<glyph unicode="&#xdf;" glyph-name="germandbls" horiz-adv-x="599" d="M50 150V573Q50 816 286 816Q347 816 394 792T467 724T493 622Q493 564 449 516Q423 487 415 472T406 441Q406 423 427 400T495 344Q542 311 564 268T587 168Q587 75 543 33T402 -10Q345
-10 308 3T246 47L227 173L241 177Q288 129 374 129Q408 129 425 140T443 180Q443 201 425 222T350 282Q304 314 283 349T262 427Q262 467 272 494T310 552Q334 577 341 591T349 622Q349 678 277 678Q239 678 215 650T190 565V150L200 0H40L50 150Z" />
<glyph unicode="&#xe0;" glyph-name="agrave" horiz-adv-x="573" d="M33 224T60 270T133 344T232 371Q324 371 375 344V397Q375 435 345 456T259 477Q200 477 155 458T85 401L74 403L92 551Q126 581 176 597T279 614Q387 614 451 563T515 424V149L525 0H378L375
55Q355 23 313 4T219 -16Q134 -16 84 33T33 167Q33 224 60 270ZM177 142T194 124T246 105Q283 105 316 119T375 161V229Q319 256 249 256Q212 256 195 236T177 176Q177 142 194 124ZM382 660H261L113 814H286L382 660Z" />
<glyph unicode="&#xe1;" glyph-name="aacute" horiz-adv-x="573" d="M33 224T60 270T133 344T232 371Q324 371 375 344V397Q375 435 345 456T259 477Q200 477 155 458T85 401L74 403L92 551Q126 581 176 597T279 614Q387 614 451 563T515 424V149L525 0H378L375
55Q355 23 313 4T219 -16Q134 -16 84 33T33 167Q33 224 60 270ZM177 142T194 124T246 105Q283 105 316 119T375 161V229Q319 256 249 256Q212 256 195 236T177 176Q177 142 194 124ZM463 814L315 660H194L290 814H463Z" />
<glyph unicode="&#xe2;" glyph-name="acircumflex" horiz-adv-x="573" d="M33 224T60 270T133 344T232 371Q324 371 375 344V397Q375 435 345 456T259 477Q200 477 155 458T85 401L74 403L92 551Q126 581 176 597T279 614Q387 614 451 563T515 424V149L525 0H378L375
55Q355 23 313 4T219 -16Q134 -16 84 33T33 167Q33 224 60 270ZM177 142T194 124T246 105Q283 105 316 119T375 161V229Q319 256 249 256Q212 256 195 236T177 176Q177 142 194 124ZM337 658L288 759L239 658H86L204 814H372L490 658H337Z" />
<glyph unicode="&#xe3;" glyph-name="atilde" horiz-adv-x="573" d="M33 224T60 270T133 344T232 371Q324 371 375 344V397Q375 435 345 456T259 477Q200 477 155 458T85 401L74 403L92 551Q126 581 176 597T279 614Q387 614 451 563T515 424V149L525 0H378L375
55Q355 23 313 4T219 -16Q134 -16 84 33T33 167Q33 224 60 270ZM177 142T194 124T246 105Q283 105 316 119T375 161V229Q319 256 249 256Q212 256 195 236T177 176Q177 142 194 124ZM110 729T139 761T225 794Q245 794 261 790T298 777Q311 772 324 768T348 764Q367
764 375 770T383 791H465Q465 731 436 699T350 666Q330 666 314 670T277 683Q264 688 251 692T227 696Q208 696 200 690T192 669H110Q110 729 139 761Z" />
<glyph unicode="&#xe4;" glyph-name="adieresis" horiz-adv-x="573" d="M33 224T60 270T133 344T232 371Q324 371 375 344V397Q375 435 345 456T259 477Q200 477 155 458T85 401L74 403L92 551Q126 581 176 597T279 614Q387 614 451 563T515 424V149L525 0H378L375
55Q355 23 313 4T219 -16Q134 -16 84 33T33 167Q33 224 60 270ZM177 142T194 124T246 105Q283 105 316 119T375 161V229Q319 256 249 256Q212 256 195 236T177 176Q177 142 194 124ZM136 660T112 680T87 732Q87 765 111 785T172 805Q208 805 232 785T257 732Q257
700 233 680T172 660Q136 660 112 680ZM368 660T344 680T319 732Q319 765 343 785T404 805Q440 805 464 785T489 732Q489 700 465 680T404 660Q368 660 344 680Z" />
<glyph unicode="&#xe5;" glyph-name="aring" horiz-adv-x="573" d="M33 224T60 270T133 344T232 371Q324 371 375 344V397Q375 435 345 456T259 477Q200 477 155 458T85 401L74 403L92 551Q126 581 176 597T279 614Q387 614 451 563T515 424V149L525 0H378L375
55Q355 23 313 4T219 -16Q134 -16 84 33T33 167Q33 224 60 270ZM177 142T194 124T246 105Q283 105 316 119T375 161V229Q319 256 249 256Q212 256 195 236T177 176Q177 142 194 124ZM236 640T203 670T169 751Q169 802 202 833T288 864Q340 864 373 833T407 751Q407
701 374 671T288 640Q236 640 203 670ZM305 714T315 723T325 751Q325 769 315 779T288 789Q272 789 262 779T251 751Q251 734 261 724T288 714Q305 714 315 723Z" />
<glyph unicode="&#xe6;" glyph-name="ae" horiz-adv-x="928" d="M740 128T792 140T864 171L881 162L850 40Q812 11 764 0T643 -12Q509 -12 444 70Q413 27 356 6T219 -16Q177 -16 135 0T63 58T33 167Q33 266 96 311T289 356L387 355V397Q387 477 263 477Q128 477
79 401L68 403L86 551Q121 581 172 597T283 614Q411 614 473 558Q537 616 643 616Q768 616 828 553T899 354L872 249H531Q535 200 550 174T593 138T673 128Q740 128 792 140ZM588 478T562 451T530 354H757Q757 417 730 447T647 478Q588 478 562 451ZM343 105T398
174Q390 203 387 249H289Q222 249 197 231T171 169Q171 139 187 122T235 105Q343 105 398 174Z" />
<glyph unicode="&#xe7;" glyph-name="ccedilla" horiz-adv-x="489" d="M406 9T380 -2T316 -15V-18Q355 -31 374 -54T394 -113Q394 -162 362 -189T276 -216Q205 -216 170 -185L152 -96L159 -92Q180 -112 195 -120T229 -128Q245 -128 255 -120T265 -96Q265 -78 249
-69T206 -59L217 -9Q126 11 83 87T39 295Q39 446 101 529T287 612Q355 612 392 602T465 564L443 439L427 432Q404 455 377 464T302 474Q237 474 210 433T183 295Q183 226 194 190T233 139T317 124Q369 124 400 134T455 167L472 159L441 36Q406 9 380 -2Z" />
<glyph unicode="&#xe8;" glyph-name="egrave" horiz-adv-x="582" d="M163 -12T101 67T39 301Q39 452 104 534T297 616Q422 616 482 553T553 354L526 249H185Q189 200 204 174T247 138T327 128Q394 128 446 140T518 171L535 162L504 40Q466 11 418 0T297 -12Q163
-12 101 67ZM411 354Q411 417 384 447T301 478Q242 478 216 451T184 354H411ZM391 660H270L122 814H295L391 660Z" />
<glyph unicode="&#xe9;" glyph-name="eacute" horiz-adv-x="582" d="M163 -12T101 67T39 301Q39 452 104 534T297 616Q422 616 482 553T553 354L526 249H185Q189 200 204 174T247 138T327 128Q394 128 446 140T518 171L535 162L504 40Q466 11 418 0T297 -12Q163
-12 101 67ZM411 354Q411 417 384 447T301 478Q242 478 216 451T184 354H411ZM472 814L324 660H203L299 814H472Z" />
<glyph unicode="&#xea;" glyph-name="ecircumflex" horiz-adv-x="582" d="M163 -12T101 67T39 301Q39 452 104 534T297 616Q422 616 482 553T553 354L526 249H185Q189 200 204 174T247 138T327 128Q394 128 446 140T518 171L535 162L504 40Q466 11 418 0T297 -12Q163
-12 101 67ZM411 354Q411 417 384 447T301 478Q242 478 216 451T184 354H411ZM346 658L297 759L248 658H95L213 814H381L499 658H346Z" />
<glyph unicode="&#xeb;" glyph-name="edieresis" horiz-adv-x="582" d="M163 -12T101 67T39 301Q39 452 104 534T297 616Q422 616 482 553T553 354L526 249H185Q189 200 204 174T247 138T327 128Q394 128 446 140T518 171L535 162L504 40Q466 11 418 0T297 -12Q163
-12 101 67ZM411 354Q411 417 384 447T301 478Q242 478 216 451T184 354H411ZM145 660T121 680T96 732Q96 765 120 785T181 805Q217 805 241 785T266 732Q266 700 242 680T181 660Q145 660 121 680ZM377 660T353 680T328 732Q328 765 352 785T413 805Q449 805 473
785T498 732Q498 700 474 680T413 660Q377 660 353 680Z" />
<glyph unicode="&#xec;" glyph-name="igrave" horiz-adv-x="270" d="M65 150V455L55 600H215L205 455V150L215 0H55L65 150ZM229 660H108L-40 814H133L229 660Z" />
<glyph unicode="&#xed;" glyph-name="iacute" horiz-adv-x="270" d="M65 150V455L55 600H215L205 455V150L215 0H55L65 150ZM310 814L162 660H41L137 814H310Z" />
<glyph unicode="&#xee;" glyph-name="icircumflex" horiz-adv-x="270" d="M65 150V455L55 600H215L205 455V150L215 0H55L65 150ZM184 658L135 759L86 658H-67L51 814H219L337 658H184Z" />
<glyph unicode="&#xef;" glyph-name="idieresis" horiz-adv-x="270" d="M65 150V455L55 600H215L205 455V150L215 0H55L65 150ZM-17 660T-41 680T-66 732Q-66 765 -42 785T19 805Q55 805 79 785T104 732Q104 700 80 680T19 660Q-17 660 -41 680ZM215 660T191 680T166
732Q166 765 190 785T251 805Q287 805 311 785T336 732Q336 700 312 680T251 660Q215 660 191 680Z" />
<glyph unicode="&#xf0;" glyph-name="eth" horiz-adv-x="587" d="M468 535T505 453T542 284Q542 138 479 61T298 -16Q223 -16 168 15T82 105T52 242Q52 369 104 433T256 497Q297 497 341 478Q314 519 269 559L86 489V587L186 625Q149 650 116 670V684L185 759Q260
719 318 676L489 741V643L396 608Q468 535 505 453ZM350 122T374 161T398 284Q398 310 395 335Q354 362 298 362Q245 362 221 333T196 242Q196 187 223 155T298 122Q350 122 374 161Z" />
<glyph unicode="&#xf1;" glyph-name="ntilde" horiz-adv-x="578" d="M380 150V407Q380 440 362 459T312 479Q249 479 205 411V150L215 0H55L65 150V455L55 600H185L205 527Q258 607 369 607Q439 607 479 563T520 434V150L530 0H370L380 150ZM115 729T144 761T230
794Q250 794 266 790T303 777Q316 772 329 768T353 764Q372 764 380 770T388 791H470Q470 731 441 699T355 666Q335 666 319 670T282 683Q269 688 256 692T232 696Q213 696 205 690T197 669H115Q115 729 144 761Z" />
<glyph unicode="&#xf2;" glyph-name="ograve" horiz-adv-x="594" d="M162 -16T101 64T39 301Q39 458 100 537T297 616Q432 616 493 537T555 301Q555 144 494 64T297 -16Q162 -16 101 64ZM344 122T368 137T401 190T411 300Q411 372 402 409T368 462T297 478Q250
478 226 463T193 410T183 300Q183 228 192 191T226 138T297 122Q344 122 368 137ZM391 660H270L122 814H295L391 660Z" />
<glyph unicode="&#xf3;" glyph-name="oacute" horiz-adv-x="594" d="M162 -16T101 64T39 301Q39 458 100 537T297 616Q432 616 493 537T555 301Q555 144 494 64T297 -16Q162 -16 101 64ZM344 122T368 137T401 190T411 300Q411 372 402 409T368 462T297 478Q250
478 226 463T193 410T183 300Q183 228 192 191T226 138T297 122Q344 122 368 137ZM472 814L324 660H203L299 814H472Z" />
<glyph unicode="&#xf4;" glyph-name="ocircumflex" horiz-adv-x="594" d="M162 -16T101 64T39 301Q39 458 100 537T297 616Q432 616 493 537T555 301Q555 144 494 64T297 -16Q162 -16 101 64ZM344 122T368 137T401 190T411 300Q411 372 402 409T368 462T297 478Q250
478 226 463T193 410T183 300Q183 228 192 191T226 138T297 122Q344 122 368 137ZM346 658L297 759L248 658H95L213 814H381L499 658H346Z" />
<glyph unicode="&#xf5;" glyph-name="otilde" horiz-adv-x="594" d="M162 -16T101 64T39 301Q39 458 100 537T297 616Q432 616 493 537T555 301Q555 144 494 64T297 -16Q162 -16 101 64ZM344 122T368 137T401 190T411 300Q411 372 402 409T368 462T297 478Q250
478 226 463T193 410T183 300Q183 228 192 191T226 138T297 122Q344 122 368 137ZM119 729T148 761T234 794Q254 794 270 790T307 777Q320 772 333 768T357 764Q376 764 384 770T392 791H474Q474 731 445 699T359 666Q339 666 323 670T286 683Q273 688 260 692T236
696Q217 696 209 690T201 669H119Q119 729 148 761Z" />
<glyph unicode="&#xf6;" glyph-name="odieresis" horiz-adv-x="594" d="M162 -16T101 64T39 301Q39 458 100 537T297 616Q432 616 493 537T555 301Q555 144 494 64T297 -16Q162 -16 101 64ZM344 122T368 137T401 190T411 300Q411 372 402 409T368 462T297 478Q250
478 226 463T193 410T183 300Q183 228 192 191T226 138T297 122Q344 122 368 137ZM145 660T121 680T96 732Q96 765 120 785T181 805Q217 805 241 785T266 732Q266 700 242 680T181 660Q145 660 121 680ZM377 660T353 680T328 732Q328 765 352 785T413 805Q449 805
473 785T498 732Q498 700 474 680T413 660Q377 660 353 680Z" />
<glyph unicode="&#xf7;" glyph-name="divide" horiz-adv-x="544" d="M238 424T214 443T189 494Q189 526 213 545T272 565Q306 565 330 546T355 494Q355 463 331 444T272 424Q238 424 214 443ZM22 375H522V240H22V375ZM237 50T213 69T188 120Q188 151 212 171T271
191Q305 191 329 171T354 120Q354 89 330 70T271 50Q237 50 213 69Z" />
<glyph unicode="&#xf8;" glyph-name="oslash" horiz-adv-x="594" d="M555 454T555 301Q555 144 494 64T297 -16Q217 -16 162 13L153 0H49L95 71Q39 149 39 301Q39 458 100 537T297 616Q377 616 433 587L441 600H545L499 530Q555 454 555 301ZM183 242T188 213L356
469Q332 478 297 478Q250 478 226 463T193 410T183 300Q183 242 188 213ZM344 122T368 137T401 190T411 300Q411 358 406 387L238 131Q262 122 297 122Q344 122 368 137Z" />
<glyph unicode="&#xf9;" glyph-name="ugrave" horiz-adv-x="578" d="M513 149L523 0H376L372 71Q316 -12 209 -12Q138 -12 98 34T58 166V450L48 600H208L198 450V193Q198 158 217 137T266 116Q325 116 373 189V450L363 600H523L513 450V149ZM380 660H259L111 814H284L380
660Z" />
<glyph unicode="&#xfa;" glyph-name="uacute" horiz-adv-x="578" d="M513 149L523 0H376L372 71Q316 -12 209 -12Q138 -12 98 34T58 166V450L48 600H208L198 450V193Q198 158 217 137T266 116Q325 116 373 189V450L363 600H523L513 450V149ZM461 814L313 660H192L288
814H461Z" />
<glyph unicode="&#xfb;" glyph-name="ucircumflex" horiz-adv-x="578" d="M513 149L523 0H376L372 71Q316 -12 209 -12Q138 -12 98 34T58 166V450L48 600H208L198 450V193Q198 158 217 137T266 116Q325 116 373 189V450L363 600H523L513 450V149ZM335 658L286
759L237 658H84L202 814H370L488 658H335Z" />
<glyph unicode="&#xfc;" glyph-name="udieresis" horiz-adv-x="578" d="M513 149L523 0H376L372 71Q316 -12 209 -12Q138 -12 98 34T58 166V450L48 600H208L198 450V193Q198 158 217 137T266 116Q325 116 373 189V450L363 600H523L513 450V149ZM134 660T110 680T85
732Q85 765 109 785T170 805Q206 805 230 785T255 732Q255 700 231 680T170 660Q134 660 110 680ZM366 660T342 680T317 732Q317 765 341 785T402 805Q438 805 462 785T487 732Q487 700 463 680T402 660Q366 660 342 680Z" />
<glyph unicode="&#xfd;" glyph-name="yacute" horiz-adv-x="549" d="M549 600L499 455L382 0Q325 -144 220 -216L101 -103L109 -93Q140 -85 179 -56T231 0H167L51 455L0 600H176L198 455L274 104L350 455L373 600H549ZM452 814L304 660H183L279 814H452Z" />
<glyph unicode="&#xfe;" glyph-name="thorn" horiz-adv-x="590" d="M446 612T498 536T551 301Q551 151 495 72T333 -8Q299 -8 261 10T205 55V-50L215 -200H55L65 -50V655L55 800H215L205 655V578Q230 594 266 603T343 612Q446 612 498 536ZM350 127T370 142T398
195T407 301Q407 373 398 409T367 460T303 474Q238 474 205 461V156Q222 144 253 136T313 127Q350 127 370 142Z" />
<glyph unicode="&#xff;" glyph-name="ydieresis" horiz-adv-x="549" d="M549 600L499 455L382 0Q325 -144 220 -216L101 -103L109 -93Q140 -85 179 -56T231 0H167L51 455L0 600H176L198 455L274 104L350 455L373 600H549ZM125 660T101 680T76 732Q76 765 100 785T161
805Q197 805 221 785T246 732Q246 700 222 680T161 660Q125 660 101 680ZM357 660T333 680T308 732Q308 765 332 785T393 805Q429 805 453 785T478 732Q478 700 454 680T393 660Q357 660 333 680Z" />
<glyph unicode="&#x2013;" glyph-name="endash" horiz-adv-x="650" d="M50 375H600V240H50V375Z" />
<glyph unicode="&#x2014;" glyph-name="emdash" horiz-adv-x="850" d="M50 375H800V240H50V375Z" />
<glyph unicode="&#x2018;" glyph-name="quoteleft" horiz-adv-x="247" d="M174 754T200 730T227 669Q227 630 198 605T124 580Q76 580 48 607T20 680Q20 736 55 788T143 859L177 822L175 817Q134 794 133 756Q174 754 200 730Z" />
<glyph unicode="&#x2019;" glyph-name="quoteright" horiz-adv-x="247" d="M171 844T199 817T227 744Q227 688 192 636T104 565L70 602L72 607Q113 630 114 668Q73 670 47 694T20 755Q20 794 49 819T123 844Q171 844 199 817Z" />
<glyph unicode="&#x201a;" glyph-name="quotesinglbase" horiz-adv-x="277" d="M186 165T214 138T242 65Q242 9 207 -43T119 -114L85 -77L87 -72Q128 -49 129 -11Q88 -9 62 15T35 76Q35 115 64 140T138 165Q186 165 214 138Z" />
<glyph unicode="&#x201c;" glyph-name="quotedblleft" horiz-adv-x="482" d="M174 754T200 730T227 669Q227 630 198 605T124 580Q76 580 48 607T20 680Q20 736 55 788T143 859L177 822L175 817Q134 794 133 756Q174 754 200 730ZM409 755T435 731T462 670Q462
631 433 606T359 581Q311 581 283 608T255 681Q255 737 290 789T378 860L412 823L410 818Q369 795 368 757Q409 755 435 731Z" />
<glyph unicode="&#x201d;" glyph-name="quotedblright" horiz-adv-x="482" d="M171 844T199 817T227 744Q227 688 192 636T104 565L70 602L72 607Q113 630 114 668Q73 670 47 694T20 755Q20 794 49 819T123 844Q171 844 199 817ZM406 844T434 817T462 744Q462
688 427 636T339 565L305 602L307 607Q348 630 349 668Q308 670 282 694T255 755Q255 794 284 819T358 844Q406 844 434 817Z" />
<glyph unicode="&#x201e;" glyph-name="quotedblbase" horiz-adv-x="512" d="M186 165T214 138T242 65Q242 9 207 -43T119 -114L85 -77L87 -72Q128 -49 129 -11Q88 -9 62 15T35 76Q35 115 64 140T138 165Q186 165 214 138ZM421 165T449 138T477 65Q477 9 442 -43T354
-114L320 -77L322 -72Q363 -49 364 -11Q323 -9 297 15T270 76Q270 115 299 140T373 165Q421 165 449 138Z" />
<glyph unicode="&#x2022;" glyph-name="bullet" horiz-adv-x="356" d="M296 232T256 204Q226 163 178 163Q130 163 102 202Q82 216 71 236T60 280Q60 328 101 358Q114 377 134 388T178 399Q227 399 257 357Q296 328 296 280Q296 232 256 204Z" />
<glyph unicode="&#x2039;" glyph-name="guilsinglleft" horiz-adv-x="504" d="M430 67T443 56T459 43L453 27H253L28 300L253 573H453L459 557Q456 556 443 545T416 517L224 300L416 83Q430 67 443 56Z" />
<glyph unicode="&#x203a;" glyph-name="guilsinglright" horiz-adv-x="504" d="M476 300L251 27H51L45 43Q48 44 61 55T88 83L280 300L88 517Q74 533 61 544T45 557L51 573H251L476 300Z" />
</font>
</defs>
</svg>
